  0
SECTION
  2
HEADER
  9
$ACADVER
  1
AC1009
  9
$INSBASE
 10
0.0
 20
0.0
 30
0.0
  9
$EXTMIN
 10
0.0
 20
0.0
 30
0.0
  9
$EXTMAX
 10
0.0
 20
0.0
 30
0.0
  0
ENDSEC
  0
SECTION
  2
TABLES
  0
TABLE
  2
VPORT
 70
0
  0
ENDTAB
  0
TABLE
  2
LTYPE
 70
1
  0
LTYPE
  2
CONTINUOUS
 70
0
  3
Solid line
 72
65
 73
0
 40
0.0
  0
ENDTAB
  0
TABLE
  2
LAYER
 70
1
  0
LAYER
  2
0
 70
64
 62
7
  6
continuous
  0
ENDTAB
  0
TABLE
  2
STYLE
 70
1
  0
STYLE
  2
STANDARD
 70
0
 40
0
 41
1.0
 50
0.0
 71
0
 42
1
 3
ARIAL.TTF
 4

  0
ENDTAB
  0
TABLE
  2
VIEW
 70
0
  0
ENDTAB
  0
ENDSEC
  0
SECTION
  2
BLOCKS
  0
BLOCK
  8
0
  2
LINEARPATTERN002
 70
0
 10
0.0
 20
0.0
 30
0.0
  3
LINEARPATTERN002
  0
LINE
  8
0
 62
0
 10
-366.0
 20
311.0
 30
0.0
 11
366.0
 21
311.0
 31
0.0
  0
LINE
  8
0
 62
0
 10
-366.0
 20
-286.0
 30
0.0
 11
-366.0
 21
311.0
 31
0.0
  0
LINE
  8
0
 62
0
 10
366.0
 20
311.0
 30
0.0
 11
366.0
 21
-286.0
 31
0.0
  0
LINE
  8
0
 62
0
 10
366.0
 20
-286.0
 30
0.0
 11
-366.0
 21
-286.0
 31
0.0
  0
CIRCLE
  8
0
 62
0
 10
-265.5
 20
-83.0
 30
0.0
 40
1.25
  0
CIRCLE
  8
0
 62
0
 10
-265.5
 20
192.0
 30
0.0
 40
1.25
  0
CIRCLE
  8
0
 62
0
 10
-265.5
 20
167.0
 30
0.0
 40
1.25
  0
CIRCLE
  8
0
 62
0
 10
-265.5
 20
142.0
 30
0.0
 40
1.25
  0
CIRCLE
  8
0
 62
0
 10
-265.5
 20
-158.0
 30
0.0
 40
1.25
  0
CIRCLE
  8
0
 62
0
 10
-265.5
 20
-183.0
 30
0.0
 40
1.25
  0
LINE
  8
0
 62
0
 10
-250.0
 20
200.0
 30
0.0
 11
250.0
 21
200.0
 31
0.0
  0
LINE
  8
0
 62
0
 10
-250.0
 20
-200.0
 30
0.0
 11
-250.0
 21
200.0
 31
0.0
  0
LINE
  8
0
 62
0
 10
250.0
 20
200.0
 30
0.0
 11
250.0
 21
-200.0
 31
0.0
  0
LINE
  8
0
 62
0
 10
250.0
 20
-200.0
 30
0.0
 11
-250.0
 21
-200.0
 31
0.0
  0
LINE
  8
0
 62
0
 10
359.5
 20
-43.2
 30
0.0
 11
352.5
 21
-43.2
 31
0.0
  0
LINE
  8
0
 62
0
 10
359.5
 20
-31.2
 30
0.0
 11
359.5
 21
-43.2
 31
0.0
  0
LINE
  8
0
 62
0
 10
352.5
 20
-43.2
 30
0.0
 11
352.5
 21
-31.2
 31
0.0
  0
LINE
  8
0
 62
0
 10
352.5
 20
-31.2
 30
0.0
 11
359.5
 21
-31.2
 31
0.0
  0
CIRCLE
  8
0
 62
0
 10
265.5
 20
-58.0
 30
0.0
 40
1.25
  0
CIRCLE
  8
0
 62
0
 10
265.5
 20
-33.0
 30
0.0
 40
1.25
  0
CIRCLE
  8
0
 62
0
 10
265.5
 20
-108.0
 30
0.0
 40
1.25
  0
CIRCLE
  8
0
 62
0
 10
312.5
 20
-104.0
 30
0.0
 40
1.65
  0
CIRCLE
  8
0
 62
0
 10
265.5
 20
-83.0
 30
0.0
 40
1.25
  0
CIRCLE
  8
0
 62
0
 10
328.0
 20
-5.5
 30
0.0
 40
1.6
  0
CIRCLE
  8
0
 62
0
 10
297.0
 20
-5.5
 30
0.0
 40
1.6
  0
CIRCLE
  8
0
 62
0
 10
265.5
 20
-8.0
 30
0.0
 40
1.25
  0
CIRCLE
  8
0
 62
0
 10
265.5
 20
17.0
 30
0.0
 40
1.25
  0
CIRCLE
  8
0
 62
0
 10
312.5
 20
10.0
 30
0.0
 40
12.0
  0
CIRCLE
  8
0
 62
0
 10
265.5
 20
167.0
 30
0.0
 40
1.25
  0
CIRCLE
  8
0
 62
0
 10
312.5
 20
156.0
 30
0.0
 40
1.65
  0
LINE
  8
0
 62
0
 10
352.5
 20
155.6
 30
0.0
 11
352.5
 21
167.6
 31
0.0
  0
LINE
  8
0
 62
0
 10
359.5
 20
155.6
 30
0.0
 11
352.5
 21
155.6
 31
0.0
  0
LINE
  8
0
 62
0
 10
352.5
 20
167.6
 30
0.0
 11
359.5
 21
167.6
 31
0.0
  0
LINE
  8
0
 62
0
 10
359.5
 20
167.6
 30
0.0
 11
359.5
 21
155.6
 31
0.0
  0
CIRCLE
  8
0
 62
0
 10
265.5
 20
142.0
 30
0.0
 40
1.25
  0
CIRCLE
  8
0
 62
0
 10
312.5
 20
140.0
 30
0.0
 40
5.1
  0
CIRCLE
  8
0
 62
0
 10
265.5
 20
117.0
 30
0.0
 40
1.25
  0
CIRCLE
  8
0
 62
0
 10
312.5
 20
124.0
 30
0.0
 40
1.65
  0
LINE
  8
0
 62
0
 10
359.5
 20
56.2
 30
0.0
 11
352.5
 21
56.2
 31
0.0
  0
LINE
  8
0
 62
0
 10
359.5
 20
68.2
 30
0.0
 11
359.5
 21
56.2
 31
0.0
  0
LINE
  8
0
 62
0
 10
352.5
 20
56.2
 30
0.0
 11
352.5
 21
68.2
 31
0.0
  0
LINE
  8
0
 62
0
 10
352.5
 20
68.2
 30
0.0
 11
359.5
 21
68.2
 31
0.0
  0
CIRCLE
  8
0
 62
0
 10
265.5
 20
-158.0
 30
0.0
 40
1.25
  0
CIRCLE
  8
0
 62
0
 10
265.5
 20
-133.0
 30
0.0
 40
1.25
  0
LINE
  8
0
 62
0
 10
359.5
 20
-130.6
 30
0.0
 11
359.5
 21
-142.6
 31
0.0
  0
LINE
  8
0
 62
0
 10
352.5
 20
-130.6
 30
0.0
 11
359.5
 21
-130.6
 31
0.0
  0
LINE
  8
0
 62
0
 10
359.5
 20
-142.6
 30
0.0
 11
352.5
 21
-142.6
 31
0.0
  0
LINE
  8
0
 62
0
 10
352.5
 20
-142.6
 30
0.0
 11
352.5
 21
-130.6
 31
0.0
  0
CIRCLE
  8
0
 62
0
 10
312.5
 20
-136.0
 30
0.0
 40
1.65
  0
CIRCLE
  8
0
 62
0
 10
312.5
 20
-120.0
 30
0.0
 40
5.1
  0
CIRCLE
  8
0
 62
0
 10
265.5
 20
192.0
 30
0.0
 40
1.25
  0
CIRCLE
  8
0
 62
0
 10
265.5
 20
-183.0
 30
0.0
 40
1.25
  0
CIRCLE
  8
0
 62
0
 10
265.5
 20
92.0
 30
0.0
 40
1.25
  0
CIRCLE
  8
0
 62
0
 10
265.5
 20
67.0
 30
0.0
 40
1.25
  0
CIRCLE
  8
0
 62
0
 10
265.5
 20
42.0
 30
0.0
 40
1.25
  0
CIRCLE
  8
0
 62
0
 10
328.0
 20
25.5
 30
0.0
 40
1.6
  0
CIRCLE
  8
0
 62
0
 10
297.0
 20
25.5
 30
0.0
 40
1.6
  0
LINE
  8
0
 62
0
 10
-352.5
 20
-130.6
 30
0.0
 11
-352.5
 21
-142.6
 31
0.0
  0
LINE
  8
0
 62
0
 10
-359.5
 20
-130.6
 30
0.0
 11
-352.5
 21
-130.6
 31
0.0
  0
LINE
  8
0
 62
0
 10
-352.5
 20
-142.6
 30
0.0
 11
-359.5
 21
-142.6
 31
0.0
  0
LINE
  8
0
 62
0
 10
-359.5
 20
-142.6
 30
0.0
 11
-359.5
 21
-130.6
 31
0.0
  0
CIRCLE
  8
0
 62
0
 10
-312.5
 20
-120.0
 30
0.0
 40
5.1
  0
CIRCLE
  8
0
 62
0
 10
-312.5
 20
-136.0
 30
0.0
 40
1.65
  0
CIRCLE
  8
0
 62
0
 10
-265.5
 20
-108.0
 30
0.0
 40
1.25
  0
CIRCLE
  8
0
 62
0
 10
-265.5
 20
-133.0
 30
0.0
 40
1.25
  0
CIRCLE
  8
0
 62
0
 10
-265.5
 20
-58.0
 30
0.0
 40
1.25
  0
CIRCLE
  8
0
 62
0
 10
-312.5
 20
-104.0
 30
0.0
 40
1.65
  0
LINE
  8
0
 62
0
 10
-352.5
 20
68.2
 30
0.0
 11
-352.5
 21
56.2
 31
0.0
  0
LINE
  8
0
 62
0
 10
-359.5
 20
68.2
 30
0.0
 11
-352.5
 21
68.2
 31
0.0
  0
LINE
  8
0
 62
0
 10
-352.5
 20
56.2
 30
0.0
 11
-359.5
 21
56.2
 31
0.0
  0
LINE
  8
0
 62
0
 10
-359.5
 20
56.2
 30
0.0
 11
-359.5
 21
68.2
 31
0.0
  0
CIRCLE
  8
0
 62
0
 10
-312.5
 20
10.0
 30
0.0
 40
12.0
  0
CIRCLE
  8
0
 62
0
 10
-328.0
 20
25.5
 30
0.0
 40
1.6
  0
CIRCLE
  8
0
 62
0
 10
-265.5
 20
67.0
 30
0.0
 40
1.25
  0
CIRCLE
  8
0
 62
0
 10
-265.5
 20
42.0
 30
0.0
 40
1.25
  0
CIRCLE
  8
0
 62
0
 10
-297.0
 20
25.5
 30
0.0
 40
1.6
  0
CIRCLE
  8
0
 62
0
 10
-265.5
 20
17.0
 30
0.0
 40
1.25
  0
CIRCLE
  8
0
 62
0
 10
-297.0
 20
-5.5
 30
0.0
 40
1.6
  0
CIRCLE
  8
0
 62
0
 10
-328.0
 20
-5.5
 30
0.0
 40
1.6
  0
CIRCLE
  8
0
 62
0
 10
-265.5
 20
-8.0
 30
0.0
 40
1.25
  0
CIRCLE
  8
0
 62
0
 10
-265.5
 20
-33.0
 30
0.0
 40
1.25
  0
LINE
  8
0
 62
0
 10
-359.5
 20
-43.2
 30
0.0
 11
-359.5
 21
-31.2
 31
0.0
  0
LINE
  8
0
 62
0
 10
-352.5
 20
-43.2
 30
0.0
 11
-359.5
 21
-43.2
 31
0.0
  0
LINE
  8
0
 62
0
 10
-359.5
 20
-31.2
 30
0.0
 11
-352.5
 21
-31.2
 31
0.0
  0
LINE
  8
0
 62
0
 10
-352.5
 20
-31.2
 30
0.0
 11
-352.5
 21
-43.2
 31
0.0
  0
CIRCLE
  8
0
 62
0
 10
-312.5
 20
140.0
 30
0.0
 40
5.1
  0
CIRCLE
  8
0
 62
0
 10
-312.5
 20
124.0
 30
0.0
 40
1.65
  0
CIRCLE
  8
0
 62
0
 10
-265.5
 20
117.0
 30
0.0
 40
1.25
  0
CIRCLE
  8
0
 62
0
 10
-265.5
 20
92.0
 30
0.0
 40
1.25
  0
LINE
  8
0
 62
0
 10
-352.5
 20
155.6
 30
0.0
 11
-359.5
 21
155.6
 31
0.0
  0
LINE
  8
0
 62
0
 10
-352.5
 20
167.6
 30
0.0
 11
-352.5
 21
155.6
 31
0.0
  0
LINE
  8
0
 62
0
 10
-359.5
 20
155.6
 30
0.0
 11
-359.5
 21
167.6
 31
0.0
  0
LINE
  8
0
 62
0
 10
-359.5
 20
167.6
 30
0.0
 11
-352.5
 21
167.6
 31
0.0
  0
CIRCLE
  8
0
 62
0
 10
-312.5
 20
156.0
 30
0.0
 40
1.65
  0
LINE
  8
0
 62
0
 10
288.95
 20
267.0
 30
0.0
 11
288.95
 21
273.0
 31
0.0
  0
ARC
  8
0
 62
0
 10
287.35
 20
267.0
 30
0.0
 40
1.6
 50
180.0
 51
0.0
  0
ARC
  8
0
 62
0
 10
287.35
 20
273.0
 30
0.0
 40
1.6
 50
-0.0
 51
-180.0
  0
LINE
  8
0
 62
0
 10
285.75
 20
267.0
 30
0.0
 11
285.75
 21
273.0
 31
0.0
  0
ARC
  8
0
 62
0
 10
271.85
 20
251.5
 30
0.0
 40
12.0
 50
180.0
 51
0.0
  0
LINE
  8
0
 62
0
 10
283.85
 20
251.5
 30
0.0
 11
283.85
 21
257.5
 31
0.0
  0
LINE
  8
0
 62
0
 10
259.85
 20
251.5
 30
0.0
 11
259.85
 21
257.5
 31
0.0
  0
ARC
  8
0
 62
0
 10
271.85
 20
257.5
 30
0.0
 40
12.0
 50
-0.0
 51
-180.0
  0
LINE
  8
0
 62
0
 10
254.75
 20
236.0
 30
0.0
 11
254.75
 21
242.0
 31
0.0
  0
ARC
  8
0
 62
0
 10
256.35
 20
236.0
 30
0.0
 40
1.6
 50
180.0
 51
0.0
  0
ARC
  8
0
 62
0
 10
256.35
 20
242.0
 30
0.0
 40
1.6
 50
-0.0
 51
-180.0
  0
LINE
  8
0
 62
0
 10
257.95
 20
236.0
 30
0.0
 11
257.95
 21
242.0
 31
0.0
  0
ARC
  8
0
 62
0
 10
256.35
 20
267.0
 30
0.0
 40
1.6
 50
180.0
 51
0.0
  0
LINE
  8
0
 62
0
 10
257.95
 20
267.0
 30
0.0
 11
257.95
 21
273.0
 31
0.0
  0
LINE
  8
0
 62
0
 10
254.75
 20
267.0
 30
0.0
 11
254.75
 21
273.0
 31
0.0
  0
ARC
  8
0
 62
0
 10
256.35
 20
273.0
 30
0.0
 40
1.6
 50
-0.0
 51
-180.0
  0
LINE
  8
0
 62
0
 10
-359.5
 20
267.0
 30
0.0
 11
-352.5
 21
267.0
 31
0.0
  0
LINE
  8
0
 62
0
 10
-359.5
 20
255.0
 30
0.0
 11
-359.5
 21
267.0
 31
0.0
  0
LINE
  8
0
 62
0
 10
-352.5
 20
267.0
 30
0.0
 11
-352.5
 21
255.0
 31
0.0
  0
LINE
  8
0
 62
0
 10
-352.5
 20
255.0
 30
0.0
 11
-359.5
 21
255.0
 31
0.0
  0
ARC
  8
0
 62
0
 10
-271.85
 20
257.5
 30
0.0
 40
12.0
 50
-0.0
 51
-180.0
  0
LINE
  8
0
 62
0
 10
-259.85
 20
251.5
 30
0.0
 11
-259.85
 21
257.5
 31
0.0
  0
LINE
  8
0
 62
0
 10
-283.85
 20
251.5
 30
0.0
 11
-283.85
 21
257.5
 31
0.0
  0
ARC
  8
0
 62
0
 10
-271.85
 20
251.5
 30
0.0
 40
12.0
 50
180.0
 51
0.0
  0
ARC
  8
0
 62
0
 10
-287.35
 20
242.0
 30
0.0
 40
1.6
 50
-0.0
 51
-180.0
  0
LINE
  8
0
 62
0
 10
-285.75
 20
236.0
 30
0.0
 11
-285.75
 21
242.0
 31
0.0
  0
LINE
  8
0
 62
0
 10
-288.95
 20
236.0
 30
0.0
 11
-288.95
 21
242.0
 31
0.0
  0
ARC
  8
0
 62
0
 10
-287.35
 20
236.0
 30
0.0
 40
1.6
 50
180.0
 51
0.0
  0
ARC
  8
0
 62
0
 10
-287.35
 20
273.0
 30
0.0
 40
1.6
 50
-0.0
 51
-180.0
  0
LINE
  8
0
 62
0
 10
-285.75
 20
267.0
 30
0.0
 11
-285.75
 21
273.0
 31
0.0
  0
LINE
  8
0
 62
0
 10
-288.95
 20
267.0
 30
0.0
 11
-288.95
 21
273.0
 31
0.0
  0
ARC
  8
0
 62
0
 10
-287.35
 20
267.0
 30
0.0
 40
1.6
 50
180.0
 51
0.0
  0
ARC
  8
0
 62
0
 10
-256.35
 20
267.0
 30
0.0
 40
1.6
 50
180.0
 51
0.0
  0
LINE
  8
0
 62
0
 10
-257.95
 20
267.0
 30
0.0
 11
-257.95
 21
273.0
 31
0.0
  0
LINE
  8
0
 62
0
 10
-254.75
 20
267.0
 30
0.0
 11
-254.75
 21
273.0
 31
0.0
  0
ARC
  8
0
 62
0
 10
-256.35
 20
273.0
 30
0.0
 40
1.6
 50
-0.0
 51
-180.0
  0
ARC
  8
0
 62
0
 10
-256.35
 20
236.0
 30
0.0
 40
1.6
 50
180.0
 51
0.0
  0
LINE
  8
0
 62
0
 10
-257.95
 20
236.0
 30
0.0
 11
-257.95
 21
242.0
 31
0.0
  0
LINE
  8
0
 62
0
 10
-254.75
 20
236.0
 30
0.0
 11
-254.75
 21
242.0
 31
0.0
  0
ARC
  8
0
 62
0
 10
-256.35
 20
242.0
 30
0.0
 40
1.6
 50
-0.0
 51
-180.0
  0
ARC
  8
0
 62
0
 10
287.35
 20
236.0
 30
0.0
 40
1.6
 50
180.0
 51
0.0
  0
LINE
  8
0
 62
0
 10
288.95
 20
236.0
 30
0.0
 11
288.95
 21
242.0
 31
0.0
  0
LINE
  8
0
 62
0
 10
285.75
 20
236.0
 30
0.0
 11
285.75
 21
242.0
 31
0.0
  0
ARC
  8
0
 62
0
 10
287.35
 20
242.0
 30
0.0
 40
1.6
 50
-0.0
 51
-180.0
  0
LINE
  8
0
 62
0
 10
352.5
 20
255.0
 30
0.0
 11
352.5
 21
267.0
 31
0.0
  0
LINE
  8
0
 62
0
 10
359.5
 20
255.0
 30
0.0
 11
352.5
 21
255.0
 31
0.0
  0
LINE
  8
0
 62
0
 10
352.5
 20
267.0
 30
0.0
 11
359.5
 21
267.0
 31
0.0
  0
LINE
  8
0
 62
0
 10
359.5
 20
267.0
 30
0.0
 11
359.5
 21
255.0
 31
0.0
  0
LINE
  8
0
 62
0
 10
-352.5
 20
-242.0
 30
0.0
 11
-359.5
 21
-242.0
 31
0.0
  0
LINE
  8
0
 62
0
 10
-352.5
 20
-230.0
 30
0.0
 11
-352.5
 21
-242.0
 31
0.0
  0
LINE
  8
0
 62
0
 10
-359.5
 20
-242.0
 30
0.0
 11
-359.5
 21
-230.0
 31
0.0
  0
LINE
  8
0
 62
0
 10
-359.5
 20
-230.0
 30
0.0
 11
-352.5
 21
-230.0
 31
0.0
  0
CIRCLE
  8
0
 62
0
 10
-260.5
 20
-242.0
 30
0.0
 40
1.25
  0
CIRCLE
  8
0
 62
0
 10
-273.2
 20
-242.0
 30
0.0
 40
1.25
  0
CIRCLE
  8
0
 62
0
 10
-281.85
 20
-233.0
 30
0.0
 40
1.25
  0
CIRCLE
  8
0
 62
0
 10
-251.85
 20
-233.0
 30
0.0
 40
1.25
  0
CIRCLE
  8
0
 62
0
 10
-265.5
 20
-208.0
 30
0.0
 40
1.25
  0
CIRCLE
  8
0
 62
0
 10
265.5
 20
-208.0
 30
0.0
 40
1.25
  0
CIRCLE
  8
0
 62
0
 10
251.85
 20
-233.0
 30
0.0
 40
1.25
  0
CIRCLE
  8
0
 62
0
 10
260.5
 20
-242.0
 30
0.0
 40
1.25
  0
CIRCLE
  8
0
 62
0
 10
281.85
 20
-233.0
 30
0.0
 40
1.25
  0
CIRCLE
  8
0
 62
0
 10
273.2
 20
-242.0
 30
0.0
 40
1.25
  0
LINE
  8
0
 62
0
 10
352.5
 20
-242.0
 30
0.0
 11
352.5
 21
-230.0
 31
0.0
  0
LINE
  8
0
 62
0
 10
359.5
 20
-242.0
 30
0.0
 11
352.5
 21
-242.0
 31
0.0
  0
LINE
  8
0
 62
0
 10
352.5
 20
-230.0
 30
0.0
 11
359.5
 21
-230.0
 31
0.0
  0
LINE
  8
0
 62
0
 10
359.5
 20
-230.0
 30
0.0
 11
359.5
 21
-242.0
 31
0.0
  0
LINE
  8
0
 62
0
 10
183.6
 20
297.5
 30
0.0
 11
183.6
 21
304.5
 31
0.0
  0
LINE
  8
0
 62
0
 10
195.6
 20
297.5
 30
0.0
 11
183.6
 21
297.5
 31
0.0
  0
LINE
  8
0
 62
0
 10
195.6
 20
304.5
 30
0.0
 11
195.6
 21
297.5
 31
0.0
  0
LINE
  8
0
 62
0
 10
183.6
 20
304.5
 30
0.0
 11
195.6
 21
304.5
 31
0.0
  0
LINE
  8
0
 62
0
 10
69.2
 20
304.5
 30
0.0
 11
69.2
 21
297.5
 31
0.0
  0
LINE
  8
0
 62
0
 10
57.2
 20
304.5
 30
0.0
 11
69.2
 21
304.5
 31
0.0
  0
LINE
  8
0
 62
0
 10
57.2
 20
297.5
 30
0.0
 11
57.2
 21
304.5
 31
0.0
  0
LINE
  8
0
 62
0
 10
69.2
 20
297.5
 30
0.0
 11
57.2
 21
297.5
 31
0.0
  0
LINE
  8
0
 62
0
 10
-195.6
 20
297.5
 30
0.0
 11
-195.6
 21
304.5
 31
0.0
  0
LINE
  8
0
 62
0
 10
-183.6
 20
297.5
 30
0.0
 11
-195.6
 21
297.5
 31
0.0
  0
LINE
  8
0
 62
0
 10
-183.6
 20
304.5
 30
0.0
 11
-183.6
 21
297.5
 31
0.0
  0
LINE
  8
0
 62
0
 10
-195.6
 20
304.5
 30
0.0
 11
-183.6
 21
304.5
 31
0.0
  0
LINE
  8
0
 62
0
 10
-69.2
 20
297.5
 30
0.0
 11
-69.2
 21
304.5
 31
0.0
  0
LINE
  8
0
 62
0
 10
-57.2
 20
297.5
 30
0.0
 11
-69.2
 21
297.5
 31
0.0
  0
LINE
  8
0
 62
0
 10
-57.2
 20
304.5
 30
0.0
 11
-57.2
 21
297.5
 31
0.0
  0
LINE
  8
0
 62
0
 10
-69.2
 20
304.5
 30
0.0
 11
-57.2
 21
304.5
 31
0.0
  0
LINE
  8
0
 62
0
 10
-310.0
 20
304.5
 30
0.0
 11
-310.0
 21
297.5
 31
0.0
  0
LINE
  8
0
 62
0
 10
-322.0
 20
304.5
 30
0.0
 11
-310.0
 21
304.5
 31
0.0
  0
LINE
  8
0
 62
0
 10
-310.0
 20
297.5
 30
0.0
 11
-322.0
 21
297.5
 31
0.0
  0
LINE
  8
0
 62
0
 10
-322.0
 20
297.5
 30
0.0
 11
-322.0
 21
304.5
 31
0.0
  0
CIRCLE
  8
0
 62
0
 10
356.0
 20
301.0
 30
0.0
 40
4.400044
  0
LINE
  8
0
 62
0
 10
322.0
 20
304.5
 30
0.0
 11
322.0
 21
297.5
 31
0.0
  0
LINE
  8
0
 62
0
 10
310.0
 20
304.5
 30
0.0
 11
322.0
 21
304.5
 31
0.0
  0
LINE
  8
0
 62
0
 10
310.0
 20
297.5
 30
0.0
 11
310.0
 21
304.5
 31
0.0
  0
LINE
  8
0
 62
0
 10
322.0
 20
297.5
 30
0.0
 11
310.0
 21
297.5
 31
0.0
  0
CIRCLE
  8
0
 62
0
 10
-356.0
 20
301.0
 30
0.0
 40
4.400044
  0
CIRCLE
  8
0
 62
0
 10
281.85
 20
-251.0
 30
0.0
 40
1.25
  0
CIRCLE
  8
0
 62
0
 10
251.85
 20
-251.0
 30
0.0
 40
1.25
  0
CIRCLE
  8
0
 62
0
 10
-251.85
 20
-251.0
 30
0.0
 40
1.25
  0
CIRCLE
  8
0
 62
0
 10
-281.85
 20
-251.0
 30
0.0
 40
1.25
  0
CIRCLE
  8
0
 62
0
 10
356.0
 20
-276.0
 30
0.0
 40
4.400044
  0
LINE
  8
0
 62
0
 10
322.0
 20
-279.5
 30
0.0
 11
310.0
 21
-279.5
 31
0.0
  0
LINE
  8
0
 62
0
 10
322.0
 20
-272.5
 30
0.0
 11
322.0
 21
-279.5
 31
0.0
  0
LINE
  8
0
 62
0
 10
310.0
 20
-272.5
 30
0.0
 11
322.0
 21
-272.5
 31
0.0
  0
LINE
  8
0
 62
0
 10
310.0
 20
-279.5
 30
0.0
 11
310.0
 21
-272.5
 31
0.0
  0
LINE
  8
0
 62
0
 10
183.6
 20
-279.5
 30
0.0
 11
183.6
 21
-272.5
 31
0.0
  0
LINE
  8
0
 62
0
 10
195.6
 20
-279.5
 30
0.0
 11
183.6
 21
-279.5
 31
0.0
  0
LINE
  8
0
 62
0
 10
195.6
 20
-272.5
 30
0.0
 11
195.6
 21
-279.5
 31
0.0
  0
LINE
  8
0
 62
0
 10
183.6
 20
-272.5
 30
0.0
 11
195.6
 21
-272.5
 31
0.0
  0
LINE
  8
0
 62
0
 10
-57.2
 20
-279.5
 30
0.0
 11
-69.2
 21
-279.5
 31
0.0
  0
LINE
  8
0
 62
0
 10
-57.2
 20
-272.5
 30
0.0
 11
-57.2
 21
-279.5
 31
0.0
  0
LINE
  8
0
 62
0
 10
-69.2
 20
-272.5
 30
0.0
 11
-57.2
 21
-272.5
 31
0.0
  0
LINE
  8
0
 62
0
 10
-69.2
 20
-279.5
 30
0.0
 11
-69.2
 21
-272.5
 31
0.0
  0
LINE
  8
0
 62
0
 10
57.2
 20
-279.5
 30
0.0
 11
57.2
 21
-272.5
 31
0.0
  0
LINE
  8
0
 62
0
 10
69.2
 20
-279.5
 30
0.0
 11
57.2
 21
-279.5
 31
0.0
  0
LINE
  8
0
 62
0
 10
69.2
 20
-272.5
 30
0.0
 11
69.2
 21
-279.5
 31
0.0
  0
LINE
  8
0
 62
0
 10
57.2
 20
-272.5
 30
0.0
 11
69.2
 21
-272.5
 31
0.0
  0
CIRCLE
  8
0
 62
0
 10
-356.0
 20
-276.0
 30
0.0
 40
4.400044
  0
LINE
  8
0
 62
0
 10
-310.0
 20
-272.5
 30
0.0
 11
-310.0
 21
-279.5
 31
0.0
  0
LINE
  8
0
 62
0
 10
-322.0
 20
-272.5
 30
0.0
 11
-310.0
 21
-272.5
 31
0.0
  0
LINE
  8
0
 62
0
 10
-310.0
 20
-279.5
 30
0.0
 11
-322.0
 21
-279.5
 31
0.0
  0
LINE
  8
0
 62
0
 10
-322.0
 20
-279.5
 30
0.0
 11
-322.0
 21
-272.5
 31
0.0
  0
LINE
  8
0
 62
0
 10
-195.6
 20
-272.5
 30
0.0
 11
-183.6
 21
-272.5
 31
0.0
  0
LINE
  8
0
 62
0
 10
-195.6
 20
-279.5
 30
0.0
 11
-195.6
 21
-272.5
 31
0.0
  0
LINE
  8
0
 62
0
 10
-183.6
 20
-279.5
 30
0.0
 11
-195.6
 21
-279.5
 31
0.0
  0
LINE
  8
0
 62
0
 10
-183.6
 20
-272.5
 30
0.0
 11
-183.6
 21
-279.5
 31
0.0
  0
ENDBLK
  0
ENDSEC
  0
SECTION
  2
ENTITIES
  0
INSERT
  2
LINEARPATTERN002
  8
0
 62
0
 10
0.0
 20
0.0
 30
0.0
  0
ENDSEC
  0
EOF
