  0
SECTION
  2
HEADER
  9
$ACADVER
  1
AC1009
  9
$INSBASE
 10
0.0
 20
0.0
 30
0.0
  9
$EXTMIN
 10
0.0
 20
0.0
 30
0.0
  9
$EXTMAX
 10
0.0
 20
0.0
 30
0.0
  0
ENDSEC
  0
SECTION
  2
TABLES
  0
TABLE
  2
VPORT
 70
0
  0
ENDTAB
  0
TABLE
  2
LTYPE
 70
1
  0
LTYPE
  2
CONTINUOUS
 70
0
  3
Solid line
 72
65
 73
0
 40
0.0
  0
ENDTAB
  0
TABLE
  2
LAYER
 70
1
  0
LAYER
  2
0
 70
64
 62
7
  6
continuous
  0
ENDTAB
  0
TABLE
  2
STYLE
 70
1
  0
STYLE
  2
STANDARD
 70
0
 40
0
 41
1.0
 50
0.0
 71
0
 42
1
 3
ARIAL.TTF
 4

  0
ENDTAB
  0
TABLE
  2
VIEW
 70
0
  0
ENDTAB
  0
ENDSEC
  0
SECTION
  2
BLOCKS
  0
BLOCK
  8
0
  2
LINEARPATTERN001
 70
0
 10
0.0
 20
0.0
 30
0.0
  3
LINEARPATTERN001
  0
LINE
  8
0
 62
0
 10
-366.0
 20
327.0
 30
0.0
 11
366.0
 21
327.0
 31
0.0
  0
LINE
  8
0
 62
0
 10
-366.0
 20
-299.0
 30
0.0
 11
-366.0
 21
327.0
 31
0.0
  0
LINE
  8
0
 62
0
 10
366.0
 20
327.0
 30
0.0
 11
366.0
 21
-299.0
 31
0.0
  0
LINE
  8
0
 62
0
 10
366.0
 20
-299.0
 30
0.0
 11
-366.0
 21
-299.0
 31
0.0
  0
CIRCLE
  8
0
 62
0
 10
-312.5
 20
-38.0
 30
0.0
 40
2.0
  0
CIRCLE
  8
0
 62
0
 10
-312.5
 20
-129.0
 30
0.0
 40
2.0
  0
CIRCLE
  8
0
 62
0
 10
-312.5
 20
-161.0
 30
0.0
 40
2.0
  0
CIRCLE
  8
0
 62
0
 10
-312.5
 20
-145.0
 30
0.0
 40
5.1
  0
LINE
  8
0
 62
0
 10
-240.0
 20
-292.5
 30
0.0
 11
-252.0
 21
-292.5
 31
0.0
  0
LINE
  8
0
 62
0
 10
-240.0
 20
-285.5
 30
0.0
 11
-240.0
 21
-292.5
 31
0.0
  0
LINE
  8
0
 62
0
 10
-252.0
 20
-292.5
 30
0.0
 11
-252.0
 21
-285.5
 31
0.0
  0
LINE
  8
0
 62
0
 10
-252.0
 20
-285.5
 30
0.0
 11
-240.0
 21
-285.5
 31
0.0
  0
LINE
  8
0
 62
0
 10
6.0
 20
-292.5
 30
0.0
 11
-6.0
 21
-292.5
 31
0.0
  0
LINE
  8
0
 62
0
 10
6.0
 20
-285.5
 30
0.0
 11
6.0
 21
-292.5
 31
0.0
  0
LINE
  8
0
 62
0
 10
-6.0
 20
-292.5
 30
0.0
 11
-6.0
 21
-285.5
 31
0.0
  0
LINE
  8
0
 62
0
 10
-6.0
 20
-285.5
 30
0.0
 11
6.0
 21
-285.5
 31
0.0
  0
CIRCLE
  8
0
 62
0
 10
-312.5
 20
-2.0
 30
0.0
 40
2.0
  0
CIRCLE
  8
0
 62
0
 10
-312.5
 20
-20.0
 30
0.0
 40
4.1
  0
CIRCLE
  8
0
 62
0
 10
-312.5
 20
105.0
 30
0.0
 40
5.1
  0
CIRCLE
  8
0
 62
0
 10
-312.5
 20
89.0
 30
0.0
 40
2.0
  0
CIRCLE
  8
0
 62
0
 10
312.5
 20
105.0
 30
0.0
 40
5.1
  0
CIRCLE
  8
0
 62
0
 10
312.5
 20
89.0
 30
0.0
 40
2.0
  0
CIRCLE
  8
0
 62
0
 10
312.5
 20
-38.0
 30
0.0
 40
2.0
  0
CIRCLE
  8
0
 62
0
 10
312.5
 20
-20.0
 30
0.0
 40
4.1
  0
CIRCLE
  8
0
 62
0
 10
312.5
 20
-2.0
 30
0.0
 40
2.0
  0
CIRCLE
  8
0
 62
0
 10
312.5
 20
-161.0
 30
0.0
 40
2.0
  0
CIRCLE
  8
0
 62
0
 10
312.5
 20
-145.0
 30
0.0
 40
5.1
  0
CIRCLE
  8
0
 62
0
 10
312.5
 20
-129.0
 30
0.0
 40
2.0
  0
LINE
  8
0
 62
0
 10
252.0
 20
-292.5
 30
0.0
 11
240.0
 21
-292.5
 31
0.0
  0
LINE
  8
0
 62
0
 10
252.0
 20
-285.5
 30
0.0
 11
252.0
 21
-292.5
 31
0.0
  0
LINE
  8
0
 62
0
 10
240.0
 20
-292.5
 30
0.0
 11
240.0
 21
-285.5
 31
0.0
  0
LINE
  8
0
 62
0
 10
240.0
 20
-285.5
 30
0.0
 11
252.0
 21
-285.5
 31
0.0
  0
LINE
  8
0
 62
0
 10
252.0
 20
313.5
 30
0.0
 11
240.0
 21
313.5
 31
0.0
  0
LINE
  8
0
 62
0
 10
252.0
 20
320.5
 30
0.0
 11
252.0
 21
313.5
 31
0.0
  0
LINE
  8
0
 62
0
 10
240.0
 20
313.5
 30
0.0
 11
240.0
 21
320.5
 31
0.0
  0
LINE
  8
0
 62
0
 10
240.0
 20
320.5
 30
0.0
 11
252.0
 21
320.5
 31
0.0
  0
LINE
  8
0
 62
0
 10
-6.0
 20
320.5
 30
0.0
 11
6.0
 21
320.5
 31
0.0
  0
LINE
  8
0
 62
0
 10
-6.0
 20
313.5
 30
0.0
 11
-6.0
 21
320.5
 31
0.0
  0
LINE
  8
0
 62
0
 10
6.0
 20
320.5
 30
0.0
 11
6.0
 21
313.5
 31
0.0
  0
LINE
  8
0
 62
0
 10
6.0
 20
313.5
 30
0.0
 11
-6.0
 21
313.5
 31
0.0
  0
CIRCLE
  8
0
 62
0
 10
-312.5
 20
121.0
 30
0.0
 40
2.0
  0
LINE
  8
0
 62
0
 10
-252.0
 20
320.5
 30
0.0
 11
-240.0
 21
320.5
 31
0.0
  0
LINE
  8
0
 62
0
 10
-252.0
 20
313.5
 30
0.0
 11
-252.0
 21
320.5
 31
0.0
  0
LINE
  8
0
 62
0
 10
-240.0
 20
320.5
 30
0.0
 11
-240.0
 21
313.5
 31
0.0
  0
LINE
  8
0
 62
0
 10
-240.0
 20
313.5
 30
0.0
 11
-252.0
 21
313.5
 31
0.0
  0
CIRCLE
  8
0
 62
0
 10
312.5
 20
121.0
 30
0.0
 40
2.0
  0
LINE
  8
0
 62
0
 10
-352.5
 20
201.0
 30
0.0
 11
-359.5
 21
201.0
 31
0.0
  0
LINE
  8
0
 62
0
 10
-352.5
 20
213.0
 30
0.0
 11
-352.5
 21
201.0
 31
0.0
  0
LINE
  8
0
 62
0
 10
-359.5
 20
201.0
 30
0.0
 11
-359.5
 21
213.0
 31
0.0
  0
LINE
  8
0
 62
0
 10
-359.5
 20
213.0
 30
0.0
 11
-352.5
 21
213.0
 31
0.0
  0
LINE
  8
0
 62
0
 10
-352.5
 20
20.0
 30
0.0
 11
-352.5
 21
8.0
 31
0.0
  0
LINE
  8
0
 62
0
 10
-359.5
 20
20.0
 30
0.0
 11
-352.5
 21
20.0
 31
0.0
  0
LINE
  8
0
 62
0
 10
-359.5
 20
8.0
 30
0.0
 11
-359.5
 21
20.0
 31
0.0
  0
LINE
  8
0
 62
0
 10
-352.5
 20
8.0
 30
0.0
 11
-359.5
 21
8.0
 31
0.0
  0
CIRCLE
  8
0
 62
0
 10
-356.0
 20
-289.0
 30
0.0
 40
3.1
  0
LINE
  8
0
 62
0
 10
-352.5
 20
-173.0
 30
0.0
 11
-352.5
 21
-185.0
 31
0.0
  0
LINE
  8
0
 62
0
 10
-359.5
 20
-173.0
 30
0.0
 11
-352.5
 21
-173.0
 31
0.0
  0
LINE
  8
0
 62
0
 10
-359.5
 20
-185.0
 30
0.0
 11
-359.5
 21
-173.0
 31
0.0
  0
LINE
  8
0
 62
0
 10
-352.5
 20
-185.0
 30
0.0
 11
-359.5
 21
-185.0
 31
0.0
  0
CIRCLE
  8
0
 62
0
 10
-356.0
 20
317.0
 30
0.0
 40
3.1
  0
LINE
  8
0
 62
0
 10
359.5
 20
8.0
 30
0.0
 11
352.5
 21
8.0
 31
0.0
  0
LINE
  8
0
 62
0
 10
359.5
 20
20.0
 30
0.0
 11
359.5
 21
8.0
 31
0.0
  0
LINE
  8
0
 62
0
 10
352.5
 20
20.0
 30
0.0
 11
359.5
 21
20.0
 31
0.0
  0
LINE
  8
0
 62
0
 10
352.5
 20
8.0
 30
0.0
 11
352.5
 21
20.0
 31
0.0
  0
CIRCLE
  8
0
 62
0
 10
356.0
 20
-289.0
 30
0.0
 40
3.1
  0
LINE
  8
0
 62
0
 10
352.5
 20
-185.0
 30
0.0
 11
352.5
 21
-173.0
 31
0.0
  0
LINE
  8
0
 62
0
 10
359.5
 20
-185.0
 30
0.0
 11
352.5
 21
-185.0
 31
0.0
  0
LINE
  8
0
 62
0
 10
359.5
 20
-173.0
 30
0.0
 11
359.5
 21
-185.0
 31
0.0
  0
LINE
  8
0
 62
0
 10
352.5
 20
-173.0
 30
0.0
 11
359.5
 21
-173.0
 31
0.0
  0
CIRCLE
  8
0
 62
0
 10
356.0
 20
317.0
 30
0.0
 40
3.1
  0
LINE
  8
0
 62
0
 10
359.5
 20
213.0
 30
0.0
 11
359.5
 21
201.0
 31
0.0
  0
LINE
  8
0
 62
0
 10
352.5
 20
213.0
 30
0.0
 11
359.5
 21
213.0
 31
0.0
  0
LINE
  8
0
 62
0
 10
359.5
 20
201.0
 30
0.0
 11
352.5
 21
201.0
 31
0.0
  0
LINE
  8
0
 62
0
 10
352.5
 20
201.0
 30
0.0
 11
352.5
 21
213.0
 31
0.0
  0
ENDBLK
  0
ENDSEC
  0
SECTION
  2
ENTITIES
  0
INSERT
  2
LINEARPATTERN001
  8
0
 62
0
 10
0.0
 20
0.0
 30
0.0
  0
ENDSEC
  0
EOF
