  0
SECTION
  2
HEADER
  9
$ACADVER
  1
AC1009
  9
$INSBASE
 10
0.0
 20
0.0
 30
0.0
  9
$EXTMIN
 10
0.0
 20
0.0
 30
0.0
  9
$EXTMAX
 10
0.0
 20
0.0
 30
0.0
  0
ENDSEC
  0
SECTION
  2
TABLES
  0
TABLE
  2
VPORT
 70
0
  0
ENDTAB
  0
TABLE
  2
LTYPE
 70
1
  0
LTYPE
  2
CONTINUOUS
 70
0
  3
Solid line
 72
65
 73
0
 40
0.0
  0
ENDTAB
  0
TABLE
  2
LAYER
 70
1
  0
LAYER
  2
0
 70
64
 62
7
  6
continuous
  0
ENDTAB
  0
TABLE
  2
STYLE
 70
1
  0
STYLE
  2
STANDARD
 70
0
 40
0
 41
1.0
 50
0.0
 71
0
 42
1
 3
ARIAL.TTF
 4

  0
ENDTAB
  0
TABLE
  2
VIEW
 70
0
  0
ENDTAB
  0
ENDSEC
  0
SECTION
  2
BLOCKS
  0
BLOCK
  8
0
  2
LINEARPATTERN002
 70
0
 10
0.0
 20
0.0
 30
0.0
  3
LINEARPATTERN002
  0
LINE
  8
0
 62
0
 10
-366.0
 20
316.0
 30
0.0
 11
366.0
 21
316.0
 31
0.0
  0
LINE
  8
0
 62
0
 10
-366.0
 20
-291.0
 30
0.0
 11
-366.0
 21
316.0
 31
0.0
  0
LINE
  8
0
 62
0
 10
366.0
 20
316.0
 30
0.0
 11
366.0
 21
-291.0
 31
0.0
  0
LINE
  8
0
 62
0
 10
366.0
 20
-291.0
 30
0.0
 11
-366.0
 21
-291.0
 31
0.0
  0
CIRCLE
  8
0
 62
0
 10
265.5
 20
-138.0
 30
0.0
 40
1.25
  0
CIRCLE
  8
0
 62
0
 10
265.5
 20
-163.0
 30
0.0
 40
1.25
  0
CIRCLE
  8
0
 62
0
 10
265.5
 20
-188.0
 30
0.0
 40
1.25
  0
CIRCLE
  8
0
 62
0
 10
265.5
 20
-213.0
 30
0.0
 40
1.25
  0
CIRCLE
  8
0
 62
0
 10
312.5
 20
-136.0
 30
0.0
 40
1.65
  0
LINE
  8
0
 62
0
 10
359.5
 20
-145.6
 30
0.0
 11
352.5
 21
-145.6
 31
0.0
  0
LINE
  8
0
 62
0
 10
359.5
 20
-133.6
 30
0.0
 11
359.5
 21
-145.6
 31
0.0
  0
LINE
  8
0
 62
0
 10
352.5
 20
-145.6
 30
0.0
 11
352.5
 21
-133.6
 31
0.0
  0
LINE
  8
0
 62
0
 10
352.5
 20
-133.6
 30
0.0
 11
359.5
 21
-133.6
 31
0.0
  0
LINE
  8
0
 62
0
 10
352.5
 20
-247.0
 30
0.0
 11
352.5
 21
-235.0
 31
0.0
  0
LINE
  8
0
 62
0
 10
359.5
 20
-247.0
 30
0.0
 11
352.5
 21
-247.0
 31
0.0
  0
LINE
  8
0
 62
0
 10
352.5
 20
-235.0
 30
0.0
 11
359.5
 21
-235.0
 31
0.0
  0
LINE
  8
0
 62
0
 10
359.5
 20
-235.0
 30
0.0
 11
359.5
 21
-247.0
 31
0.0
  0
CIRCLE
  8
0
 62
0
 10
273.2
 20
-247.0
 30
0.0
 40
1.25
  0
CIRCLE
  8
0
 62
0
 10
281.85
 20
-238.0
 30
0.0
 40
1.25
  0
CIRCLE
  8
0
 62
0
 10
312.5
 20
10.0
 30
0.0
 40
12.0
  0
CIRCLE
  8
0
 62
0
 10
312.5
 20
-104.0
 30
0.0
 40
1.65
  0
CIRCLE
  8
0
 62
0
 10
312.5
 20
-120.0
 30
0.0
 40
5.1
  0
CIRCLE
  8
0
 62
0
 10
265.5
 20
-13.0
 30
0.0
 40
1.25
  0
CIRCLE
  8
0
 62
0
 10
265.5
 20
-38.0
 30
0.0
 40
1.25
  0
CIRCLE
  8
0
 62
0
 10
265.5
 20
-88.0
 30
0.0
 40
1.25
  0
CIRCLE
  8
0
 62
0
 10
265.5
 20
-63.0
 30
0.0
 40
1.25
  0
CIRCLE
  8
0
 62
0
 10
265.5
 20
-113.0
 30
0.0
 40
1.25
  0
CIRCLE
  8
0
 62
0
 10
265.5
 20
12.0
 30
0.0
 40
1.25
  0
CIRCLE
  8
0
 62
0
 10
297.0
 20
-5.5
 30
0.0
 40
1.6
  0
CIRCLE
  8
0
 62
0
 10
328.0
 20
-5.5
 30
0.0
 40
1.6
  0
LINE
  8
0
 62
0
 10
359.5
 20
-44.2
 30
0.0
 11
352.5
 21
-44.2
 31
0.0
  0
LINE
  8
0
 62
0
 10
359.5
 20
-32.2
 30
0.0
 11
359.5
 21
-44.2
 31
0.0
  0
LINE
  8
0
 62
0
 10
352.5
 20
-44.2
 30
0.0
 11
352.5
 21
-32.2
 31
0.0
  0
LINE
  8
0
 62
0
 10
352.5
 20
-32.2
 30
0.0
 11
359.5
 21
-32.2
 31
0.0
  0
CIRCLE
  8
0
 62
0
 10
260.5
 20
-247.0
 30
0.0
 40
1.25
  0
LINE
  8
0
 62
0
 10
257.95
 20
272.0
 30
0.0
 11
257.95
 21
278.0
 31
0.0
  0
ARC
  8
0
 62
0
 10
256.35
 20
272.0
 30
0.0
 40
1.6
 50
180.0
 51
0.0
  0
ARC
  8
0
 62
0
 10
256.35
 20
278.0
 30
0.0
 40
1.6
 50
-0.0
 51
-180.0
  0
LINE
  8
0
 62
0
 10
254.75
 20
272.0
 30
0.0
 11
254.75
 21
278.0
 31
0.0
  0
LINE
  8
0
 62
0
 10
257.95
 20
241.0
 30
0.0
 11
257.95
 21
247.0
 31
0.0
  0
ARC
  8
0
 62
0
 10
256.35
 20
241.0
 30
0.0
 40
1.6
 50
180.0
 51
0.0
  0
ARC
  8
0
 62
0
 10
256.35
 20
247.0
 30
0.0
 40
1.6
 50
-0.0
 51
-180.0
  0
LINE
  8
0
 62
0
 10
254.75
 20
241.0
 30
0.0
 11
254.75
 21
247.0
 31
0.0
  0
ARC
  8
0
 62
0
 10
271.85
 20
256.5
 30
0.0
 40
12.0
 50
180.0
 51
-0.0
  0
LINE
  8
0
 62
0
 10
283.85
 20
256.5
 30
0.0
 11
283.85
 21
262.5
 31
0.0
  0
LINE
  8
0
 62
0
 10
259.85
 20
256.5
 30
0.0
 11
259.85
 21
262.5
 31
0.0
  0
ARC
  8
0
 62
0
 10
271.85
 20
262.5
 30
0.0
 40
12.0
 50
-0.0
 51
-180.0
  0
LINE
  8
0
 62
0
 10
288.95
 20
272.0
 30
0.0
 11
288.95
 21
278.0
 31
0.0
  0
ARC
  8
0
 62
0
 10
287.35
 20
272.0
 30
0.0
 40
1.6
 50
180.0
 51
0.0
  0
ARC
  8
0
 62
0
 10
287.35
 20
278.0
 30
0.0
 40
1.6
 50
-0.0
 51
-180.0
  0
LINE
  8
0
 62
0
 10
285.75
 20
272.0
 30
0.0
 11
285.75
 21
278.0
 31
0.0
  0
ARC
  8
0
 62
0
 10
287.35
 20
241.0
 30
0.0
 40
1.6
 50
180.0
 51
0.0
  0
LINE
  8
0
 62
0
 10
288.95
 20
241.0
 30
0.0
 11
288.95
 21
247.0
 31
0.0
  0
LINE
  8
0
 62
0
 10
285.75
 20
241.0
 30
0.0
 11
285.75
 21
247.0
 31
0.0
  0
ARC
  8
0
 62
0
 10
287.35
 20
247.0
 30
0.0
 40
1.6
 50
-0.0
 51
-180.0
  0
CIRCLE
  8
0
 62
0
 10
265.5
 20
112.0
 30
0.0
 40
1.25
  0
CIRCLE
  8
0
 62
0
 10
265.5
 20
137.0
 30
0.0
 40
1.25
  0
CIRCLE
  8
0
 62
0
 10
265.5
 20
187.0
 30
0.0
 40
1.25
  0
CIRCLE
  8
0
 62
0
 10
265.5
 20
162.0
 30
0.0
 40
1.25
  0
CIRCLE
  8
0
 62
0
 10
265.5
 20
62.0
 30
0.0
 40
1.25
  0
CIRCLE
  8
0
 62
0
 10
265.5
 20
87.0
 30
0.0
 40
1.25
  0
LINE
  8
0
 62
0
 10
352.5
 20
260.0
 30
0.0
 11
352.5
 21
272.0
 31
0.0
  0
LINE
  8
0
 62
0
 10
359.5
 20
260.0
 30
0.0
 11
352.5
 21
260.0
 31
0.0
  0
LINE
  8
0
 62
0
 10
352.5
 20
272.0
 30
0.0
 11
359.5
 21
272.0
 31
0.0
  0
LINE
  8
0
 62
0
 10
359.5
 20
272.0
 30
0.0
 11
359.5
 21
260.0
 31
0.0
  0
CIRCLE
  8
0
 62
0
 10
312.5
 20
140.0
 30
0.0
 40
5.1
  0
CIRCLE
  8
0
 62
0
 10
312.5
 20
156.0
 30
0.0
 40
1.65
  0
LINE
  8
0
 62
0
 10
352.5
 20
158.6
 30
0.0
 11
352.5
 21
170.6
 31
0.0
  0
LINE
  8
0
 62
0
 10
359.5
 20
158.6
 30
0.0
 11
352.5
 21
158.6
 31
0.0
  0
LINE
  8
0
 62
0
 10
352.5
 20
170.6
 30
0.0
 11
359.5
 21
170.6
 31
0.0
  0
LINE
  8
0
 62
0
 10
359.5
 20
170.6
 30
0.0
 11
359.5
 21
158.6
 31
0.0
  0
CIRCLE
  8
0
 62
0
 10
312.5
 20
124.0
 30
0.0
 40
1.65
  0
LINE
  8
0
 62
0
 10
359.5
 20
57.2
 30
0.0
 11
352.5
 21
57.2
 31
0.0
  0
LINE
  8
0
 62
0
 10
359.5
 20
69.2
 30
0.0
 11
359.5
 21
57.2
 31
0.0
  0
LINE
  8
0
 62
0
 10
352.5
 20
57.2
 30
0.0
 11
352.5
 21
69.2
 31
0.0
  0
LINE
  8
0
 62
0
 10
352.5
 20
69.2
 30
0.0
 11
359.5
 21
69.2
 31
0.0
  0
CIRCLE
  8
0
 62
0
 10
297.0
 20
25.5
 30
0.0
 40
1.6
  0
CIRCLE
  8
0
 62
0
 10
328.0
 20
25.5
 30
0.0
 40
1.6
  0
CIRCLE
  8
0
 62
0
 10
265.5
 20
37.0
 30
0.0
 40
1.25
  0
CIRCLE
  8
0
 62
0
 10
251.85
 20
-238.0
 30
0.0
 40
1.25
  0
LINE
  8
0
 62
0
 10
183.6
 20
302.5
 30
0.0
 11
183.6
 21
309.5
 31
0.0
  0
LINE
  8
0
 62
0
 10
195.6
 20
302.5
 30
0.0
 11
183.6
 21
302.5
 31
0.0
  0
LINE
  8
0
 62
0
 10
195.6
 20
309.5
 30
0.0
 11
195.6
 21
302.5
 31
0.0
  0
LINE
  8
0
 62
0
 10
183.6
 20
309.5
 30
0.0
 11
195.6
 21
309.5
 31
0.0
  0
CIRCLE
  8
0
 62
0
 10
356.0
 20
306.0
 30
0.0
 40
4.400044
  0
LINE
  8
0
 62
0
 10
322.0
 20
309.5
 30
0.0
 11
322.0
 21
302.5
 31
0.0
  0
LINE
  8
0
 62
0
 10
310.0
 20
309.5
 30
0.0
 11
322.0
 21
309.5
 31
0.0
  0
LINE
  8
0
 62
0
 10
310.0
 20
302.5
 30
0.0
 11
310.0
 21
309.5
 31
0.0
  0
LINE
  8
0
 62
0
 10
322.0
 20
302.5
 30
0.0
 11
310.0
 21
302.5
 31
0.0
  0
CIRCLE
  8
0
 62
0
 10
-356.0
 20
306.0
 30
0.0
 40
4.400044
  0
LINE
  8
0
 62
0
 10
-310.0
 20
309.5
 30
0.0
 11
-310.0
 21
302.5
 31
0.0
  0
LINE
  8
0
 62
0
 10
-322.0
 20
309.5
 30
0.0
 11
-310.0
 21
309.5
 31
0.0
  0
LINE
  8
0
 62
0
 10
-310.0
 20
302.5
 30
0.0
 11
-322.0
 21
302.5
 31
0.0
  0
LINE
  8
0
 62
0
 10
-322.0
 20
302.5
 30
0.0
 11
-322.0
 21
309.5
 31
0.0
  0
LINE
  8
0
 62
0
 10
-359.5
 20
272.0
 30
0.0
 11
-352.5
 21
272.0
 31
0.0
  0
LINE
  8
0
 62
0
 10
-359.5
 20
260.0
 30
0.0
 11
-359.5
 21
272.0
 31
0.0
  0
LINE
  8
0
 62
0
 10
-352.5
 20
272.0
 30
0.0
 11
-352.5
 21
260.0
 31
0.0
  0
LINE
  8
0
 62
0
 10
-352.5
 20
260.0
 30
0.0
 11
-359.5
 21
260.0
 31
0.0
  0
ARC
  8
0
 62
0
 10
-271.85
 20
262.5
 30
0.0
 40
12.0
 50
-0.0
 51
-180.0
  0
LINE
  8
0
 62
0
 10
-259.85
 20
256.5
 30
0.0
 11
-259.85
 21
262.5
 31
0.0
  0
LINE
  8
0
 62
0
 10
-283.85
 20
256.5
 30
0.0
 11
-283.85
 21
262.5
 31
0.0
  0
ARC
  8
0
 62
0
 10
-271.85
 20
256.5
 30
0.0
 40
12.0
 50
-180.0
 51
0.0
  0
ARC
  8
0
 62
0
 10
-287.35
 20
278.0
 30
0.0
 40
1.6
 50
-0.0
 51
-180.0
  0
LINE
  8
0
 62
0
 10
-285.75
 20
272.0
 30
0.0
 11
-285.75
 21
278.0
 31
0.0
  0
LINE
  8
0
 62
0
 10
-288.95
 20
272.0
 30
0.0
 11
-288.95
 21
278.0
 31
0.0
  0
ARC
  8
0
 62
0
 10
-287.35
 20
272.0
 30
0.0
 40
1.6
 50
180.0
 51
0.0
  0
ARC
  8
0
 62
0
 10
-287.35
 20
247.0
 30
0.0
 40
1.6
 50
-0.0
 51
-180.0
  0
LINE
  8
0
 62
0
 10
-285.75
 20
241.0
 30
0.0
 11
-285.75
 21
247.0
 31
0.0
  0
LINE
  8
0
 62
0
 10
-288.95
 20
241.0
 30
0.0
 11
-288.95
 21
247.0
 31
0.0
  0
ARC
  8
0
 62
0
 10
-287.35
 20
241.0
 30
0.0
 40
1.6
 50
180.0
 51
0.0
  0
CIRCLE
  8
0
 62
0
 10
-265.5
 20
112.0
 30
0.0
 40
1.25
  0
CIRCLE
  8
0
 62
0
 10
-312.5
 20
124.0
 30
0.0
 40
1.65
  0
CIRCLE
  8
0
 62
0
 10
-265.5
 20
162.0
 30
0.0
 40
1.25
  0
CIRCLE
  8
0
 62
0
 10
-312.5
 20
156.0
 30
0.0
 40
1.65
  0
CIRCLE
  8
0
 62
0
 10
-265.5
 20
137.0
 30
0.0
 40
1.25
  0
CIRCLE
  8
0
 62
0
 10
-312.5
 20
140.0
 30
0.0
 40
5.1
  0
LINE
  8
0
 62
0
 10
-352.5
 20
158.6
 30
0.0
 11
-359.5
 21
158.6
 31
0.0
  0
LINE
  8
0
 62
0
 10
-352.5
 20
170.6
 30
0.0
 11
-352.5
 21
158.6
 31
0.0
  0
LINE
  8
0
 62
0
 10
-359.5
 20
158.6
 30
0.0
 11
-359.5
 21
170.6
 31
0.0
  0
LINE
  8
0
 62
0
 10
-359.5
 20
170.6
 30
0.0
 11
-352.5
 21
170.6
 31
0.0
  0
CIRCLE
  8
0
 62
0
 10
-265.5
 20
187.0
 30
0.0
 40
1.25
  0
ARC
  8
0
 62
0
 10
-256.35
 20
272.0
 30
0.0
 40
1.6
 50
180.0
 51
0.0
  0
LINE
  8
0
 62
0
 10
-257.95
 20
272.0
 30
0.0
 11
-257.95
 21
278.0
 31
0.0
  0
LINE
  8
0
 62
0
 10
-254.75
 20
272.0
 30
0.0
 11
-254.75
 21
278.0
 31
0.0
  0
ARC
  8
0
 62
0
 10
-256.35
 20
278.0
 30
0.0
 40
1.6
 50
-0.0
 51
-180.0
  0
ARC
  8
0
 62
0
 10
-256.35
 20
241.0
 30
0.0
 40
1.6
 50
180.0
 51
0.0
  0
LINE
  8
0
 62
0
 10
-257.95
 20
241.0
 30
0.0
 11
-257.95
 21
247.0
 31
0.0
  0
LINE
  8
0
 62
0
 10
-254.75
 20
241.0
 30
0.0
 11
-254.75
 21
247.0
 31
0.0
  0
ARC
  8
0
 62
0
 10
-256.35
 20
247.0
 30
0.0
 40
1.6
 50
-0.0
 51
-180.0
  0
CIRCLE
  8
0
 62
0
 10
-312.5
 20
-120.0
 30
0.0
 40
5.1
  0
CIRCLE
  8
0
 62
0
 10
-312.5
 20
-104.0
 30
0.0
 40
1.65
  0
CIRCLE
  8
0
 62
0
 10
-265.5
 20
-113.0
 30
0.0
 40
1.25
  0
CIRCLE
  8
0
 62
0
 10
-265.5
 20
-38.0
 30
0.0
 40
1.25
  0
CIRCLE
  8
0
 62
0
 10
-265.5
 20
-63.0
 30
0.0
 40
1.25
  0
CIRCLE
  8
0
 62
0
 10
-265.5
 20
-88.0
 30
0.0
 40
1.25
  0
CIRCLE
  8
0
 62
0
 10
-265.5
 20
87.0
 30
0.0
 40
1.25
  0
CIRCLE
  8
0
 62
0
 10
-265.5
 20
62.0
 30
0.0
 40
1.25
  0
CIRCLE
  8
0
 62
0
 10
-265.5
 20
37.0
 30
0.0
 40
1.25
  0
CIRCLE
  8
0
 62
0
 10
-297.0
 20
25.5
 30
0.0
 40
1.6
  0
CIRCLE
  8
0
 62
0
 10
-265.5
 20
12.0
 30
0.0
 40
1.25
  0
CIRCLE
  8
0
 62
0
 10
-265.5
 20
-13.0
 30
0.0
 40
1.25
  0
CIRCLE
  8
0
 62
0
 10
-297.0
 20
-5.5
 30
0.0
 40
1.6
  0
CIRCLE
  8
0
 62
0
 10
-312.5
 20
10.0
 30
0.0
 40
12.0
  0
LINE
  8
0
 62
0
 10
-359.5
 20
-44.2
 30
0.0
 11
-359.5
 21
-32.2
 31
0.0
  0
LINE
  8
0
 62
0
 10
-352.5
 20
-44.2
 30
0.0
 11
-359.5
 21
-44.2
 31
0.0
  0
LINE
  8
0
 62
0
 10
-359.5
 20
-32.2
 30
0.0
 11
-352.5
 21
-32.2
 31
0.0
  0
LINE
  8
0
 62
0
 10
-352.5
 20
-32.2
 30
0.0
 11
-352.5
 21
-44.2
 31
0.0
  0
LINE
  8
0
 62
0
 10
-352.5
 20
69.2
 30
0.0
 11
-352.5
 21
57.2
 31
0.0
  0
LINE
  8
0
 62
0
 10
-359.5
 20
69.2
 30
0.0
 11
-352.5
 21
69.2
 31
0.0
  0
LINE
  8
0
 62
0
 10
-352.5
 20
57.2
 30
0.0
 11
-359.5
 21
57.2
 31
0.0
  0
LINE
  8
0
 62
0
 10
-359.5
 20
57.2
 30
0.0
 11
-359.5
 21
69.2
 31
0.0
  0
CIRCLE
  8
0
 62
0
 10
-328.0
 20
-5.5
 30
0.0
 40
1.6
  0
CIRCLE
  8
0
 62
0
 10
-328.0
 20
25.5
 30
0.0
 40
1.6
  0
CIRCLE
  8
0
 62
0
 10
-265.5
 20
-188.0
 30
0.0
 40
1.25
  0
CIRCLE
  8
0
 62
0
 10
-265.5
 20
-138.0
 30
0.0
 40
1.25
  0
LINE
  8
0
 62
0
 10
-352.5
 20
-133.6
 30
0.0
 11
-352.5
 21
-145.6
 31
0.0
  0
LINE
  8
0
 62
0
 10
-359.5
 20
-133.6
 30
0.0
 11
-352.5
 21
-133.6
 31
0.0
  0
LINE
  8
0
 62
0
 10
-352.5
 20
-145.6
 30
0.0
 11
-359.5
 21
-145.6
 31
0.0
  0
LINE
  8
0
 62
0
 10
-359.5
 20
-145.6
 30
0.0
 11
-359.5
 21
-133.6
 31
0.0
  0
CIRCLE
  8
0
 62
0
 10
-312.5
 20
-136.0
 30
0.0
 40
1.65
  0
LINE
  8
0
 62
0
 10
69.2
 20
309.5
 30
0.0
 11
69.2
 21
302.5
 31
0.0
  0
LINE
  8
0
 62
0
 10
57.2
 20
309.5
 30
0.0
 11
69.2
 21
309.5
 31
0.0
  0
LINE
  8
0
 62
0
 10
57.2
 20
302.5
 30
0.0
 11
57.2
 21
309.5
 31
0.0
  0
LINE
  8
0
 62
0
 10
69.2
 20
302.5
 30
0.0
 11
57.2
 21
302.5
 31
0.0
  0
LINE
  8
0
 62
0
 10
-195.6
 20
302.5
 30
0.0
 11
-195.6
 21
309.5
 31
0.0
  0
LINE
  8
0
 62
0
 10
-183.6
 20
302.5
 30
0.0
 11
-195.6
 21
302.5
 31
0.0
  0
LINE
  8
0
 62
0
 10
-183.6
 20
309.5
 30
0.0
 11
-183.6
 21
302.5
 31
0.0
  0
LINE
  8
0
 62
0
 10
-195.6
 20
309.5
 30
0.0
 11
-183.6
 21
309.5
 31
0.0
  0
LINE
  8
0
 62
0
 10
-69.2
 20
302.5
 30
0.0
 11
-69.2
 21
309.5
 31
0.0
  0
LINE
  8
0
 62
0
 10
-57.2
 20
302.5
 30
0.0
 11
-69.2
 21
302.5
 31
0.0
  0
LINE
  8
0
 62
0
 10
-57.2
 20
309.5
 30
0.0
 11
-57.2
 21
302.5
 31
0.0
  0
LINE
  8
0
 62
0
 10
-69.2
 20
309.5
 30
0.0
 11
-57.2
 21
309.5
 31
0.0
  0
LINE
  8
0
 62
0
 10
-250.0
 20
200.0
 30
0.0
 11
250.0
 21
200.0
 31
0.0
  0
LINE
  8
0
 62
0
 10
-250.0
 20
-200.0
 30
0.0
 11
-250.0
 21
200.0
 31
0.0
  0
LINE
  8
0
 62
0
 10
250.0
 20
200.0
 30
0.0
 11
250.0
 21
-200.0
 31
0.0
  0
LINE
  8
0
 62
0
 10
250.0
 20
-200.0
 30
0.0
 11
-250.0
 21
-200.0
 31
0.0
  0
CIRCLE
  8
0
 62
0
 10
-265.5
 20
-163.0
 30
0.0
 40
1.25
  0
LINE
  8
0
 62
0
 10
-352.5
 20
-247.0
 30
0.0
 11
-359.5
 21
-247.0
 31
0.0
  0
LINE
  8
0
 62
0
 10
-352.5
 20
-235.0
 30
0.0
 11
-352.5
 21
-247.0
 31
0.0
  0
LINE
  8
0
 62
0
 10
-359.5
 20
-247.0
 30
0.0
 11
-359.5
 21
-235.0
 31
0.0
  0
LINE
  8
0
 62
0
 10
-359.5
 20
-235.0
 30
0.0
 11
-352.5
 21
-235.0
 31
0.0
  0
CIRCLE
  8
0
 62
0
 10
-281.85
 20
-238.0
 30
0.0
 40
1.25
  0
CIRCLE
  8
0
 62
0
 10
-260.5
 20
-247.0
 30
0.0
 40
1.25
  0
CIRCLE
  8
0
 62
0
 10
-273.2
 20
-247.0
 30
0.0
 40
1.25
  0
CIRCLE
  8
0
 62
0
 10
-251.85
 20
-238.0
 30
0.0
 40
1.25
  0
CIRCLE
  8
0
 62
0
 10
-265.5
 20
-213.0
 30
0.0
 40
1.25
  0
CIRCLE
  8
0
 62
0
 10
-281.85
 20
-256.0
 30
0.0
 40
1.25
  0
CIRCLE
  8
0
 62
0
 10
-251.85
 20
-256.0
 30
0.0
 40
1.25
  0
CIRCLE
  8
0
 62
0
 10
251.85
 20
-256.0
 30
0.0
 40
1.25
  0
CIRCLE
  8
0
 62
0
 10
281.85
 20
-256.0
 30
0.0
 40
1.25
  0
LINE
  8
0
 62
0
 10
322.0
 20
-284.5
 30
0.0
 11
310.0
 21
-284.5
 31
0.0
  0
LINE
  8
0
 62
0
 10
322.0
 20
-277.5
 30
0.0
 11
322.0
 21
-284.5
 31
0.0
  0
LINE
  8
0
 62
0
 10
310.0
 20
-277.5
 30
0.0
 11
322.0
 21
-277.5
 31
0.0
  0
LINE
  8
0
 62
0
 10
310.0
 20
-284.5
 30
0.0
 11
310.0
 21
-277.5
 31
0.0
  0
LINE
  8
0
 62
0
 10
183.6
 20
-284.5
 30
0.0
 11
183.6
 21
-277.5
 31
0.0
  0
LINE
  8
0
 62
0
 10
195.6
 20
-284.5
 30
0.0
 11
183.6
 21
-284.5
 31
0.0
  0
LINE
  8
0
 62
0
 10
195.6
 20
-277.5
 30
0.0
 11
195.6
 21
-284.5
 31
0.0
  0
LINE
  8
0
 62
0
 10
183.6
 20
-277.5
 30
0.0
 11
195.6
 21
-277.5
 31
0.0
  0
LINE
  8
0
 62
0
 10
-57.2
 20
-284.5
 30
0.0
 11
-69.2
 21
-284.5
 31
0.0
  0
LINE
  8
0
 62
0
 10
-57.2
 20
-277.5
 30
0.0
 11
-57.2
 21
-284.5
 31
0.0
  0
LINE
  8
0
 62
0
 10
-69.2
 20
-277.5
 30
0.0
 11
-57.2
 21
-277.5
 31
0.0
  0
LINE
  8
0
 62
0
 10
-69.2
 20
-284.5
 30
0.0
 11
-69.2
 21
-277.5
 31
0.0
  0
LINE
  8
0
 62
0
 10
57.2
 20
-284.5
 30
0.0
 11
57.2
 21
-277.5
 31
0.0
  0
LINE
  8
0
 62
0
 10
69.2
 20
-284.5
 30
0.0
 11
57.2
 21
-284.5
 31
0.0
  0
LINE
  8
0
 62
0
 10
69.2
 20
-277.5
 30
0.0
 11
69.2
 21
-284.5
 31
0.0
  0
LINE
  8
0
 62
0
 10
57.2
 20
-277.5
 30
0.0
 11
69.2
 21
-277.5
 31
0.0
  0
LINE
  8
0
 62
0
 10
-195.6
 20
-277.5
 30
0.0
 11
-183.6
 21
-277.5
 31
0.0
  0
LINE
  8
0
 62
0
 10
-195.6
 20
-284.5
 30
0.0
 11
-195.6
 21
-277.5
 31
0.0
  0
LINE
  8
0
 62
0
 10
-183.6
 20
-284.5
 30
0.0
 11
-195.6
 21
-284.5
 31
0.0
  0
LINE
  8
0
 62
0
 10
-183.6
 20
-277.5
 30
0.0
 11
-183.6
 21
-284.5
 31
0.0
  0
LINE
  8
0
 62
0
 10
-310.0
 20
-277.5
 30
0.0
 11
-310.0
 21
-284.5
 31
0.0
  0
LINE
  8
0
 62
0
 10
-322.0
 20
-277.5
 30
0.0
 11
-310.0
 21
-277.5
 31
0.0
  0
LINE
  8
0
 62
0
 10
-310.0
 20
-284.5
 30
0.0
 11
-322.0
 21
-284.5
 31
0.0
  0
LINE
  8
0
 62
0
 10
-322.0
 20
-284.5
 30
0.0
 11
-322.0
 21
-277.5
 31
0.0
  0
CIRCLE
  8
0
 62
0
 10
-356.0
 20
-281.0
 30
0.0
 40
4.400044
  0
CIRCLE
  8
0
 62
0
 10
356.0
 20
-281.0
 30
0.0
 40
4.400044
  0
ENDBLK
  0
ENDSEC
  0
SECTION
  2
ENTITIES
  0
INSERT
  2
LINEARPATTERN002
  8
0
 62
0
 10
0.0
 20
0.0
 30
0.0
  0
ENDSEC
  0
EOF
