  0
SECTION
  2
HEADER
  9
$ACADVER
  1
AC1009
  9
$INSBASE
 10
0.0
 20
0.0
 30
0.0
  9
$EXTMIN
 10
0.0
 20
0.0
 30
0.0
  9
$EXTMAX
 10
0.0
 20
0.0
 30
0.0
  0
ENDSEC
  0
SECTION
  2
TABLES
  0
TABLE
  2
VPORT
 70
0
  0
ENDTAB
  0
TABLE
  2
LTYPE
 70
1
  0
LTYPE
  2
CONTINUOUS
 70
0
  3
Solid line
 72
65
 73
0
 40
0.0
  0
ENDTAB
  0
TABLE
  2
LAYER
 70
1
  0
LAYER
  2
0
 70
64
 62
7
  6
continuous
  0
ENDTAB
  0
TABLE
  2
STYLE
 70
1
  0
STYLE
  2
STANDARD
 70
0
 40
0
 41
1.0
 50
0.0
 71
0
 42
1
 3
ARIAL.TTF
 4

  0
ENDTAB
  0
TABLE
  2
VIEW
 70
0
  0
ENDTAB
  0
ENDSEC
  0
SECTION
  2
BLOCKS
  0
BLOCK
  8
0
  2
LINEARPATTERN002
 70
0
 10
0.0
 20
0.0
 30
0.0
  3
LINEARPATTERN002
  0
LINE
  8
0
 62
0
 10
-366.0
 20
327.0
 30
0.0
 11
366.0
 21
327.0
 31
0.0
  0
LINE
  8
0
 62
0
 10
-366.0
 20
-299.0
 30
0.0
 11
-366.0
 21
327.0
 31
0.0
  0
LINE
  8
0
 62
0
 10
366.0
 20
327.0
 30
0.0
 11
366.0
 21
-299.0
 31
0.0
  0
LINE
  8
0
 62
0
 10
366.0
 20
-299.0
 30
0.0
 11
-366.0
 21
-299.0
 31
0.0
  0
CIRCLE
  8
0
 62
0
 10
297.0
 20
-35.5
 30
0.0
 40
1.6
  0
CIRCLE
  8
0
 62
0
 10
265.5
 20
-25.0
 30
0.0
 40
1.25
  0
CIRCLE
  8
0
 62
0
 10
265.5
 20
25.0
 30
0.0
 40
1.25
  0
CIRCLE
  8
0
 62
0
 10
297.0
 20
-4.5
 30
0.0
 40
1.6
  0
CIRCLE
  8
0
 62
0
 10
265.5
 20
100.0
 30
0.0
 40
1.25
  0
CIRCLE
  8
0
 62
0
 10
265.5
 20
75.0
 30
0.0
 40
1.25
  0
LINE
  8
0
 62
0
 10
257.95
 20
253.0
 30
0.0
 11
257.95
 21
258.0
 31
0.0
  0
ARC
  8
0
 62
0
 10
256.35
 20
253.0
 30
0.0
 40
1.6
 50
180.0
 51
-0.0
  0
ARC
  8
0
 62
0
 10
256.35
 20
258.0
 30
0.0
 40
1.6
 50
-0.0
 51
-180.0
  0
LINE
  8
0
 62
0
 10
254.75
 20
253.0
 30
0.0
 11
254.75
 21
258.0
 31
0.0
  0
CIRCLE
  8
0
 62
0
 10
265.5
 20
200.0
 30
0.0
 40
1.25
  0
ARC
  8
0
 62
0
 10
287.35
 20
253.0
 30
0.0
 40
1.6
 50
180.0
 51
-0.0
  0
LINE
  8
0
 62
0
 10
288.95
 20
253.0
 30
0.0
 11
288.95
 21
258.0
 31
0.0
  0
LINE
  8
0
 62
0
 10
285.75
 20
253.0
 30
0.0
 11
285.75
 21
258.0
 31
0.0
  0
ARC
  8
0
 62
0
 10
287.35
 20
258.0
 30
0.0
 40
1.6
 50
-0.0
 51
-180.0
  0
CIRCLE
  8
0
 62
0
 10
265.5
 20
150.0
 30
0.0
 40
1.25
  0
CIRCLE
  8
0
 62
0
 10
265.5
 20
125.0
 30
0.0
 40
1.25
  0
ARC
  8
0
 62
0
 10
256.35
 20
284.0
 30
0.0
 40
1.6
 50
180.0
 51
-0.0
  0
LINE
  8
0
 62
0
 10
257.95
 20
284.0
 30
0.0
 11
257.95
 21
289.0
 31
0.0
  0
LINE
  8
0
 62
0
 10
254.75
 20
284.0
 30
0.0
 11
254.75
 21
289.0
 31
0.0
  0
ARC
  8
0
 62
0
 10
256.35
 20
289.0
 30
0.0
 40
1.6
 50
-0.0
 51
-180.0
  0
ARC
  8
0
 62
0
 10
271.85
 20
268.5
 30
0.0
 40
12.0
 50
180.0
 51
-0.0
  0
LINE
  8
0
 62
0
 10
283.85
 20
268.5
 30
0.0
 11
283.85
 21
273.5
 31
0.0
  0
LINE
  8
0
 62
0
 10
259.85
 20
268.5
 30
0.0
 11
259.85
 21
273.5
 31
0.0
  0
ARC
  8
0
 62
0
 10
271.85
 20
273.5
 30
0.0
 40
12.0
 50
-0.0
 51
-180.0
  0
LINE
  8
0
 62
0
 10
288.95
 20
284.0
 30
0.0
 11
288.95
 21
289.0
 31
0.0
  0
ARC
  8
0
 62
0
 10
287.35
 20
284.0
 30
0.0
 40
1.6
 50
180.0
 51
-0.0
  0
ARC
  8
0
 62
0
 10
287.35
 20
289.0
 30
0.0
 40
1.6
 50
-0.0
 51
-180.0
  0
LINE
  8
0
 62
0
 10
285.75
 20
284.0
 30
0.0
 11
285.75
 21
289.0
 31
0.0
  0
ARC
  8
0
 62
0
 10
-256.35
 20
284.0
 30
0.0
 40
1.6
 50
-180.0
 51
0.0
  0
LINE
  8
0
 62
0
 10
-257.95
 20
284.0
 30
0.0
 11
-257.95
 21
289.0
 31
0.0
  0
LINE
  8
0
 62
0
 10
-254.75
 20
284.0
 30
0.0
 11
-254.75
 21
289.0
 31
0.0
  0
ARC
  8
0
 62
0
 10
-256.35
 20
289.0
 30
0.0
 40
1.6
 50
-0.0
 51
-180.0
  0
ARC
  8
0
 62
0
 10
-256.35
 20
253.0
 30
0.0
 40
1.6
 50
-180.0
 51
0.0
  0
LINE
  8
0
 62
0
 10
-257.95
 20
253.0
 30
0.0
 11
-257.95
 21
258.0
 31
0.0
  0
LINE
  8
0
 62
0
 10
-254.75
 20
253.0
 30
0.0
 11
-254.75
 21
258.0
 31
0.0
  0
ARC
  8
0
 62
0
 10
-256.35
 20
258.0
 30
0.0
 40
1.6
 50
-0.0
 51
-180.0
  0
CIRCLE
  8
0
 62
0
 10
265.5
 20
-100.0
 30
0.0
 40
1.25
  0
ARC
  8
0
 62
0
 10
-287.35
 20
258.0
 30
0.0
 40
1.6
 50
-0.0
 51
-180.0
  0
LINE
  8
0
 62
0
 10
-285.75
 20
253.0
 30
0.0
 11
-285.75
 21
258.0
 31
0.0
  0
LINE
  8
0
 62
0
 10
-288.95
 20
253.0
 30
0.0
 11
-288.95
 21
258.0
 31
0.0
  0
ARC
  8
0
 62
0
 10
-287.35
 20
253.0
 30
0.0
 40
1.6
 50
-180.0
 51
0.0
  0
ARC
  8
0
 62
0
 10
-287.35
 20
289.0
 30
0.0
 40
1.6
 50
-0.0
 51
-180.0
  0
LINE
  8
0
 62
0
 10
-285.75
 20
284.0
 30
0.0
 11
-285.75
 21
289.0
 31
0.0
  0
LINE
  8
0
 62
0
 10
-288.95
 20
284.0
 30
0.0
 11
-288.95
 21
289.0
 31
0.0
  0
ARC
  8
0
 62
0
 10
-287.35
 20
284.0
 30
0.0
 40
1.6
 50
-180.0
 51
0.0
  0
ARC
  8
0
 62
0
 10
-271.85
 20
273.5
 30
0.0
 40
12.0
 50
-0.0
 51
-180.0
  0
LINE
  8
0
 62
0
 10
-259.85
 20
268.5
 30
0.0
 11
-259.85
 21
273.5
 31
0.0
  0
LINE
  8
0
 62
0
 10
-283.85
 20
268.5
 30
0.0
 11
-283.85
 21
273.5
 31
0.0
  0
ARC
  8
0
 62
0
 10
-271.85
 20
268.5
 30
0.0
 40
12.0
 50
-180.0
 51
0.0
  0
CIRCLE
  8
0
 62
0
 10
-312.5
 20
-145.0
 30
0.0
 40
5.1
  0
CIRCLE
  8
0
 62
0
 10
-312.5
 20
-129.0
 30
0.0
 40
1.65
  0
CIRCLE
  8
0
 62
0
 10
-312.5
 20
-20.0
 30
0.0
 40
12.0
  0
CIRCLE
  8
0
 62
0
 10
-312.5
 20
105.0
 30
0.0
 40
5.1
  0
CIRCLE
  8
0
 62
0
 10
-312.5
 20
89.0
 30
0.0
 40
1.65
  0
CIRCLE
  8
0
 62
0
 10
-265.5
 20
-150.0
 30
0.0
 40
1.25
  0
CIRCLE
  8
0
 62
0
 10
-265.5
 20
-125.0
 30
0.0
 40
1.25
  0
CIRCLE
  8
0
 62
0
 10
-265.5
 20
-100.0
 30
0.0
 40
1.25
  0
CIRCLE
  8
0
 62
0
 10
-265.5
 20
-50.0
 30
0.0
 40
1.25
  0
CIRCLE
  8
0
 62
0
 10
-265.5
 20
-75.0
 30
0.0
 40
1.25
  0
CIRCLE
  8
0
 62
0
 10
-297.0
 20
-4.5
 30
0.0
 40
1.6
  0
CIRCLE
  8
0
 62
0
 10
-297.0
 20
-35.5
 30
0.0
 40
1.6
  0
CIRCLE
  8
0
 62
0
 10
-265.5
 20
-25.0
 30
0.0
 40
1.25
  0
CIRCLE
  8
0
 62
0
 10
-265.5
 20
75.0
 30
0.0
 40
1.25
  0
CIRCLE
  8
0
 62
0
 10
-265.5
 20
50.0
 30
0.0
 40
1.25
  0
CIRCLE
  8
0
 62
0
 10
-265.5
 20
0.0
 30
0.0
 40
1.25
  0
CIRCLE
  8
0
 62
0
 10
-265.5
 20
25.0
 30
0.0
 40
1.25
  0
CIRCLE
  8
0
 62
0
 10
-265.5
 20
100.0
 30
0.0
 40
1.25
  0
CIRCLE
  8
0
 62
0
 10
-312.5
 20
121.0
 30
0.0
 40
1.65
  0
CIRCLE
  8
0
 62
0
 10
-265.5
 20
225.0
 30
0.0
 40
1.25
  0
CIRCLE
  8
0
 62
0
 10
-265.5
 20
200.0
 30
0.0
 40
1.25
  0
CIRCLE
  8
0
 62
0
 10
-265.5
 20
175.0
 30
0.0
 40
1.25
  0
CIRCLE
  8
0
 62
0
 10
-265.5
 20
150.0
 30
0.0
 40
1.25
  0
CIRCLE
  8
0
 62
0
 10
-265.5
 20
125.0
 30
0.0
 40
1.25
  0
CIRCLE
  8
0
 62
0
 10
265.5
 20
-150.0
 30
0.0
 40
1.25
  0
CIRCLE
  8
0
 62
0
 10
265.5
 20
-125.0
 30
0.0
 40
1.25
  0
CIRCLE
  8
0
 62
0
 10
265.5
 20
-50.0
 30
0.0
 40
1.25
  0
CIRCLE
  8
0
 62
0
 10
265.5
 20
-75.0
 30
0.0
 40
1.25
  0
CIRCLE
  8
0
 62
0
 10
265.5
 20
0.0
 30
0.0
 40
1.25
  0
CIRCLE
  8
0
 62
0
 10
265.5
 20
175.0
 30
0.0
 40
1.25
  0
CIRCLE
  8
0
 62
0
 10
265.5
 20
50.0
 30
0.0
 40
1.25
  0
CIRCLE
  8
0
 62
0
 10
265.5
 20
225.0
 30
0.0
 40
1.25
  0
CIRCLE
  8
0
 62
0
 10
-260.5
 20
-252.0
 30
0.0
 40
1.25
  0
CIRCLE
  8
0
 62
0
 10
-273.2
 20
-252.0
 30
0.0
 40
1.25
  0
CIRCLE
  8
0
 62
0
 10
-265.5
 20
-200.0
 30
0.0
 40
1.25
  0
CIRCLE
  8
0
 62
0
 10
-265.5
 20
-225.0
 30
0.0
 40
1.25
  0
CIRCLE
  8
0
 62
0
 10
-284.85
 20
-240.0
 30
0.0
 40
1.25
  0
CIRCLE
  8
0
 62
0
 10
-312.5
 20
-161.0
 30
0.0
 40
1.65
  0
CIRCLE
  8
0
 62
0
 10
-265.5
 20
-175.0
 30
0.0
 40
1.25
  0
CIRCLE
  8
0
 62
0
 10
-248.85
 20
-240.0
 30
0.0
 40
1.25
  0
CIRCLE
  8
0
 62
0
 10
273.2
 20
-252.0
 30
0.0
 40
1.25
  0
CIRCLE
  8
0
 62
0
 10
265.5
 20
-225.0
 30
0.0
 40
1.25
  0
CIRCLE
  8
0
 62
0
 10
265.5
 20
-175.0
 30
0.0
 40
1.25
  0
CIRCLE
  8
0
 62
0
 10
260.5
 20
-252.0
 30
0.0
 40
1.25
  0
CIRCLE
  8
0
 62
0
 10
284.85
 20
-240.0
 30
0.0
 40
1.25
  0
CIRCLE
  8
0
 62
0
 10
248.85
 20
-240.0
 30
0.0
 40
1.25
  0
CIRCLE
  8
0
 62
0
 10
265.5
 20
-200.0
 30
0.0
 40
1.25
  0
LINE
  8
0
 62
0
 10
250.0
 20
225.0
 30
0.0
 11
250.0
 21
-225.0
 31
0.0
  0
LINE
  8
0
 62
0
 10
-250.0
 20
225.0
 30
0.0
 11
250.0
 21
225.0
 31
0.0
  0
LINE
  8
0
 62
0
 10
250.0
 20
-225.0
 30
0.0
 11
-250.0
 21
-225.0
 31
0.0
  0
LINE
  8
0
 62
0
 10
-250.0
 20
-225.0
 30
0.0
 11
-250.0
 21
225.0
 31
0.0
  0
LINE
  8
0
 62
0
 10
359.5
 20
-245.0
 30
0.0
 11
352.5
 21
-245.0
 31
0.0
  0
LINE
  8
0
 62
0
 10
359.5
 20
-233.0
 30
0.0
 11
359.5
 21
-245.0
 31
0.0
  0
LINE
  8
0
 62
0
 10
352.5
 20
-245.0
 30
0.0
 11
352.5
 21
-233.0
 31
0.0
  0
LINE
  8
0
 62
0
 10
352.5
 20
-233.0
 30
0.0
 11
359.5
 21
-233.0
 31
0.0
  0
CIRCLE
  8
0
 62
0
 10
328.0
 20
-35.5
 30
0.0
 40
1.6
  0
LINE
  8
0
 62
0
 10
352.5
 20
-118.5
 30
0.0
 11
352.5
 21
-106.5
 31
0.0
  0
LINE
  8
0
 62
0
 10
359.5
 20
-118.5
 30
0.0
 11
352.5
 21
-118.5
 31
0.0
  0
LINE
  8
0
 62
0
 10
352.5
 20
-106.5
 30
0.0
 11
359.5
 21
-106.5
 31
0.0
  0
LINE
  8
0
 62
0
 10
359.5
 20
-106.5
 30
0.0
 11
359.5
 21
-118.5
 31
0.0
  0
CIRCLE
  8
0
 62
0
 10
312.5
 20
-161.0
 30
0.0
 40
1.65
  0
CIRCLE
  8
0
 62
0
 10
312.5
 20
-145.0
 30
0.0
 40
5.1
  0
CIRCLE
  8
0
 62
0
 10
312.5
 20
-129.0
 30
0.0
 40
1.65
  0
CIRCLE
  8
0
 62
0
 10
312.5
 20
121.0
 30
0.0
 40
1.65
  0
CIRCLE
  8
0
 62
0
 10
312.5
 20
105.0
 30
0.0
 40
5.1
  0
CIRCLE
  8
0
 62
0
 10
312.5
 20
89.0
 30
0.0
 40
1.65
  0
CIRCLE
  8
0
 62
0
 10
312.5
 20
-20.0
 30
0.0
 40
12.0
  0
LINE
  8
0
 62
0
 10
352.5
 20
20.0
 30
0.0
 11
359.5
 21
20.0
 31
0.0
  0
LINE
  8
0
 62
0
 10
352.5
 20
8.0
 30
0.0
 11
352.5
 21
20.0
 31
0.0
  0
LINE
  8
0
 62
0
 10
359.5
 20
20.0
 30
0.0
 11
359.5
 21
8.0
 31
0.0
  0
LINE
  8
0
 62
0
 10
359.5
 20
8.0
 30
0.0
 11
352.5
 21
8.0
 31
0.0
  0
CIRCLE
  8
0
 62
0
 10
328.0
 20
-4.5
 30
0.0
 40
1.6
  0
LINE
  8
0
 62
0
 10
359.5
 20
134.5
 30
0.0
 11
352.5
 21
134.5
 31
0.0
  0
LINE
  8
0
 62
0
 10
359.5
 20
146.5
 30
0.0
 11
359.5
 21
134.5
 31
0.0
  0
LINE
  8
0
 62
0
 10
352.5
 20
134.5
 30
0.0
 11
352.5
 21
146.5
 31
0.0
  0
LINE
  8
0
 62
0
 10
352.5
 20
146.5
 30
0.0
 11
359.5
 21
146.5
 31
0.0
  0
LINE
  8
0
 62
0
 10
359.5
 20
261.0
 30
0.0
 11
352.5
 21
261.0
 31
0.0
  0
LINE
  8
0
 62
0
 10
359.5
 20
273.0
 30
0.0
 11
359.5
 21
261.0
 31
0.0
  0
LINE
  8
0
 62
0
 10
352.5
 20
261.0
 30
0.0
 11
352.5
 21
273.0
 31
0.0
  0
LINE
  8
0
 62
0
 10
352.5
 20
273.0
 30
0.0
 11
359.5
 21
273.0
 31
0.0
  0
LINE
  8
0
 62
0
 10
-312.0
 20
-285.5
 30
0.0
 11
-300.0
 21
-285.5
 31
0.0
  0
LINE
  8
0
 62
0
 10
-312.0
 20
-292.5
 30
0.0
 11
-312.0
 21
-285.5
 31
0.0
  0
LINE
  8
0
 62
0
 10
-300.0
 20
-285.5
 30
0.0
 11
-300.0
 21
-292.5
 31
0.0
  0
LINE
  8
0
 62
0
 10
-300.0
 20
-292.5
 30
0.0
 11
-312.0
 21
-292.5
 31
0.0
  0
CIRCLE
  8
0
 62
0
 10
-248.85
 20
-264.0
 30
0.0
 40
1.25
  0
CIRCLE
  8
0
 62
0
 10
-284.85
 20
-264.0
 30
0.0
 40
1.25
  0
LINE
  8
0
 62
0
 10
-147.0
 20
-285.5
 30
0.0
 11
-147.0
 21
-292.5
 31
0.0
  0
LINE
  8
0
 62
0
 10
-159.0
 20
-285.5
 30
0.0
 11
-147.0
 21
-285.5
 31
0.0
  0
LINE
  8
0
 62
0
 10
-159.0
 20
-292.5
 30
0.0
 11
-159.0
 21
-285.5
 31
0.0
  0
LINE
  8
0
 62
0
 10
-147.0
 20
-292.5
 30
0.0
 11
-159.0
 21
-292.5
 31
0.0
  0
CIRCLE
  8
0
 62
0
 10
284.85
 20
-264.0
 30
0.0
 40
1.25
  0
CIRCLE
  8
0
 62
0
 10
248.85
 20
-264.0
 30
0.0
 40
1.25
  0
LINE
  8
0
 62
0
 10
159.0
 20
-292.5
 30
0.0
 11
147.0
 21
-292.5
 31
0.0
  0
LINE
  8
0
 62
0
 10
159.0
 20
-285.5
 30
0.0
 11
159.0
 21
-292.5
 31
0.0
  0
LINE
  8
0
 62
0
 10
147.0
 20
-285.5
 30
0.0
 11
159.0
 21
-285.5
 31
0.0
  0
LINE
  8
0
 62
0
 10
147.0
 20
-292.5
 30
0.0
 11
147.0
 21
-285.5
 31
0.0
  0
LINE
  8
0
 62
0
 10
6.0
 20
-285.5
 30
0.0
 11
6.0
 21
-292.5
 31
0.0
  0
LINE
  8
0
 62
0
 10
-6.0
 20
-285.5
 30
0.0
 11
6.0
 21
-285.5
 31
0.0
  0
LINE
  8
0
 62
0
 10
-6.0
 20
-292.5
 30
0.0
 11
-6.0
 21
-285.5
 31
0.0
  0
LINE
  8
0
 62
0
 10
6.0
 20
-292.5
 30
0.0
 11
-6.0
 21
-292.5
 31
0.0
  0
LINE
  8
0
 62
0
 10
312.0
 20
-292.5
 30
0.0
 11
300.0
 21
-292.5
 31
0.0
  0
LINE
  8
0
 62
0
 10
312.0
 20
-285.5
 30
0.0
 11
312.0
 21
-292.5
 31
0.0
  0
LINE
  8
0
 62
0
 10
300.0
 20
-285.5
 30
0.0
 11
312.0
 21
-285.5
 31
0.0
  0
LINE
  8
0
 62
0
 10
300.0
 20
-292.5
 30
0.0
 11
300.0
 21
-285.5
 31
0.0
  0
CIRCLE
  8
0
 62
0
 10
356.0
 20
-289.0
 30
0.0
 40
3.0
  0
CIRCLE
  8
0
 62
0
 10
356.0
 20
317.0
 30
0.0
 40
3.0
  0
LINE
  8
0
 62
0
 10
300.0
 20
313.5
 30
0.0
 11
300.0
 21
320.5
 31
0.0
  0
LINE
  8
0
 62
0
 10
312.0
 20
313.5
 30
0.0
 11
300.0
 21
313.5
 31
0.0
  0
LINE
  8
0
 62
0
 10
312.0
 20
320.5
 30
0.0
 11
312.0
 21
313.5
 31
0.0
  0
LINE
  8
0
 62
0
 10
300.0
 20
320.5
 30
0.0
 11
312.0
 21
320.5
 31
0.0
  0
LINE
  8
0
 62
0
 10
147.0
 20
320.5
 30
0.0
 11
159.0
 21
320.5
 31
0.0
  0
LINE
  8
0
 62
0
 10
147.0
 20
313.5
 30
0.0
 11
147.0
 21
320.5
 31
0.0
  0
LINE
  8
0
 62
0
 10
159.0
 20
313.5
 30
0.0
 11
147.0
 21
313.5
 31
0.0
  0
LINE
  8
0
 62
0
 10
159.0
 20
320.5
 30
0.0
 11
159.0
 21
313.5
 31
0.0
  0
LINE
  8
0
 62
0
 10
-300.0
 20
320.5
 30
0.0
 11
-300.0
 21
313.5
 31
0.0
  0
LINE
  8
0
 62
0
 10
-312.0
 20
320.5
 30
0.0
 11
-300.0
 21
320.5
 31
0.0
  0
LINE
  8
0
 62
0
 10
-300.0
 20
313.5
 30
0.0
 11
-312.0
 21
313.5
 31
0.0
  0
LINE
  8
0
 62
0
 10
-312.0
 20
313.5
 30
0.0
 11
-312.0
 21
320.5
 31
0.0
  0
LINE
  8
0
 62
0
 10
-147.0
 20
313.5
 30
0.0
 11
-159.0
 21
313.5
 31
0.0
  0
LINE
  8
0
 62
0
 10
-147.0
 20
320.5
 30
0.0
 11
-147.0
 21
313.5
 31
0.0
  0
LINE
  8
0
 62
0
 10
-159.0
 20
320.5
 30
0.0
 11
-147.0
 21
320.5
 31
0.0
  0
LINE
  8
0
 62
0
 10
-159.0
 20
313.5
 30
0.0
 11
-159.0
 21
320.5
 31
0.0
  0
LINE
  8
0
 62
0
 10
-6.00000000001
 20
320.5
 30
0.0
 11
5.99999999999
 21
320.5
 31
0.0
  0
LINE
  8
0
 62
0
 10
-6.00000000001
 20
313.5
 30
0.0
 11
-6.00000000001
 21
320.5
 31
0.0
  0
LINE
  8
0
 62
0
 10
5.99999999999
 20
313.5
 30
0.0
 11
-6.00000000001
 21
313.5
 31
0.0
  0
LINE
  8
0
 62
0
 10
5.99999999999
 20
320.5
 30
0.0
 11
5.99999999999
 21
313.5
 31
0.0
  0
CIRCLE
  8
0
 62
0
 10
-328.0
 20
-4.5
 30
0.0
 40
1.6
  0
CIRCLE
  8
0
 62
0
 10
-328.0
 20
-35.5
 30
0.0
 40
1.6
  0
CIRCLE
  8
0
 62
0
 10
-356.0
 20
317.0
 30
0.0
 40
3.0
  0
LINE
  8
0
 62
0
 10
-352.5
 20
261.0
 30
0.0
 11
-359.5
 21
261.0
 31
0.0
  0
LINE
  8
0
 62
0
 10
-352.5
 20
273.0
 30
0.0
 11
-352.5
 21
261.0
 31
0.0
  0
LINE
  8
0
 62
0
 10
-359.5
 20
261.0
 30
0.0
 11
-359.5
 21
273.0
 31
0.0
  0
LINE
  8
0
 62
0
 10
-359.5
 20
273.0
 30
0.0
 11
-352.5
 21
273.0
 31
0.0
  0
LINE
  8
0
 62
0
 10
-359.5
 20
146.5
 30
0.0
 11
-352.5
 21
146.5
 31
0.0
  0
LINE
  8
0
 62
0
 10
-359.5
 20
134.5
 30
0.0
 11
-359.5
 21
146.5
 31
0.0
  0
LINE
  8
0
 62
0
 10
-352.5
 20
146.5
 30
0.0
 11
-352.5
 21
134.5
 31
0.0
  0
LINE
  8
0
 62
0
 10
-352.5
 20
134.5
 30
0.0
 11
-359.5
 21
134.5
 31
0.0
  0
CIRCLE
  8
0
 62
0
 10
-356.0
 20
-289.0
 30
0.0
 40
3.0
  0
LINE
  8
0
 62
0
 10
-359.5
 20
-233.0
 30
0.0
 11
-352.5
 21
-233.0
 31
0.0
  0
LINE
  8
0
 62
0
 10
-359.5
 20
-245.0
 30
0.0
 11
-359.5
 21
-233.0
 31
0.0
  0
LINE
  8
0
 62
0
 10
-352.5
 20
-233.0
 30
0.0
 11
-352.5
 21
-245.0
 31
0.0
  0
LINE
  8
0
 62
0
 10
-352.5
 20
-245.0
 30
0.0
 11
-359.5
 21
-245.0
 31
0.0
  0
LINE
  8
0
 62
0
 10
-352.5
 20
-118.5
 30
0.0
 11
-359.5
 21
-118.5
 31
0.0
  0
LINE
  8
0
 62
0
 10
-352.5
 20
-106.5
 30
0.0
 11
-352.5
 21
-118.5
 31
0.0
  0
LINE
  8
0
 62
0
 10
-359.5
 20
-118.5
 30
0.0
 11
-359.5
 21
-106.5
 31
0.0
  0
LINE
  8
0
 62
0
 10
-359.5
 20
-106.5
 30
0.0
 11
-352.5
 21
-106.5
 31
0.0
  0
LINE
  8
0
 62
0
 10
-359.5
 20
7.99999999999
 30
0.0
 11
-359.5
 21
20.0
 31
0.0
  0
LINE
  8
0
 62
0
 10
-352.5
 20
7.99999999999
 30
0.0
 11
-359.5
 21
7.99999999999
 31
0.0
  0
LINE
  8
0
 62
0
 10
-359.5
 20
20.0
 30
0.0
 11
-352.5
 21
20.0
 31
0.0
  0
LINE
  8
0
 62
0
 10
-352.5
 20
20.0
 30
0.0
 11
-352.5
 21
7.99999999999
 31
0.0
  0
ENDBLK
  0
ENDSEC
  0
SECTION
  2
ENTITIES
  0
INSERT
  2
LINEARPATTERN002
  8
0
 62
0
 10
0.0
 20
0.0
 30
0.0
  0
ENDSEC
  0
EOF
