  0
SECTION
  2
HEADER
  9
$ACADVER
  1
AC1009
  9
$INSBASE
 10
0.0
 20
0.0
 30
0.0
  9
$EXTMIN
 10
0.0
 20
0.0
 30
0.0
  9
$EXTMAX
 10
0.0
 20
0.0
 30
0.0
  0
ENDSEC
  0
SECTION
  2
TABLES
  0
TABLE
  2
VPORT
 70
0
  0
ENDTAB
  0
TABLE
  2
LTYPE
 70
1
  0
LTYPE
  2
CONTINUOUS
 70
0
  3
Solid line
 72
65
 73
0
 40
0.0
  0
ENDTAB
  0
TABLE
  2
LAYER
 70
1
  0
LAYER
  2
0
 70
64
 62
7
  6
continuous
  0
ENDTAB
  0
TABLE
  2
STYLE
 70
1
  0
STYLE
  2
STANDARD
 70
0
 40
0
 41
1.0
 50
0.0
 71
0
 42
1
 3
ARIAL.TTF
 4

  0
ENDTAB
  0
TABLE
  2
VIEW
 70
0
  0
ENDTAB
  0
ENDSEC
  0
SECTION
  2
BLOCKS
  0
BLOCK
  8
0
  2
CHAMFER
 70
0
 10
0.0
 20
0.0
 30
0.0
  3
CHAMFER
  0
LINE
  8
0
 62
0
 10
-168.0
 20
35.0
 30
0.0
 11
168.0
 21
35.0
 31
0.0
  0
LINE
  8
0
 62
0
 10
-168.0
 20
35.0
 30
0.0
 11
-170.0
 21
33.0
 31
0.0
  0
LINE
  8
0
 62
0
 10
168.0
 20
35.0
 30
0.0
 11
170.0
 21
33.0
 31
0.0
  0
LINE
  8
0
 62
0
 10
-170.0
 20
-33.0
 30
0.0
 11
-170.0
 21
33.0
 31
0.0
  0
LINE
  8
0
 62
0
 10
170.0
 20
33.0
 30
0.0
 11
170.0
 21
-33.0
 31
0.0
  0
LINE
  8
0
 62
0
 10
-170.0
 20
-33.0
 30
0.0
 11
-168.0
 21
-35.0
 31
0.0
  0
LINE
  8
0
 62
0
 10
170.0
 20
-33.0
 30
0.0
 11
168.0
 21
-35.0
 31
0.0
  0
LINE
  8
0
 62
0
 10
168.0
 20
-35.0
 30
0.0
 11
-168.0
 21
-35.0
 31
0.0
  0
CIRCLE
  8
0
 62
0
 10
120.0
 20
-20.0
 30
0.0
 40
2.5
  0
CIRCLE
  8
0
 62
0
 10
0.0
 20
0.0
 30
0.0
 40
10.5
  0
CIRCLE
  8
0
 62
0
 10
-9.99848988598
 20
9.99848988598
 30
0.0
 40
1.25
  0
CIRCLE
  8
0
 62
0
 10
9.99848988598
 20
-9.99848988598
 30
0.0
 40
1.25
  0
CIRCLE
  8
0
 62
0
 10
-9.99848988598
 20
-9.99848988598
 30
0.0
 40
1.25
  0
CIRCLE
  8
0
 62
0
 10
9.99848988598
 20
9.99848988598
 30
0.0
 40
1.25
  0
CIRCLE
  8
0
 62
0
 10
120.0
 20
20.0
 30
0.0
 40
2.5
  0
CIRCLE
  8
0
 62
0
 10
20.0
 20
25.0
 30
0.0
 40
2.5
  0
CIRCLE
  8
0
 62
0
 10
-120.0
 20
20.0
 30
0.0
 40
2.5
  0
CIRCLE
  8
0
 62
0
 10
-120.0
 20
-20.0
 30
0.0
 40
2.5
  0
CIRCLE
  8
0
 62
0
 10
-20.0
 20
25.0
 30
0.0
 40
2.5
  0
CIRCLE
  8
0
 62
0
 10
139.746951673
 20
10.2530483272
 30
0.0
 40
1.25
  0
CIRCLE
  8
0
 62
0
 10
139.746951673
 20
-10.2530483272
 30
0.0
 40
1.25
  0
CIRCLE
  8
0
 62
0
 10
-160.253048327
 20
-10.2530483272
 30
0.0
 40
1.25
  0
CIRCLE
  8
0
 62
0
 10
-160.253048327
 20
10.2530483272
 30
0.0
 40
1.25
  0
CIRCLE
  8
0
 62
0
 10
-150.0
 20
0.0
 30
0.0
 40
10.0
  0
CIRCLE
  8
0
 62
0
 10
-139.746951673
 20
-10.2530483272
 30
0.0
 40
1.25
  0
CIRCLE
  8
0
 62
0
 10
-139.746951673
 20
10.2530483272
 30
0.0
 40
1.25
  0
CIRCLE
  8
0
 62
0
 10
160.253048327
 20
10.2530483272
 30
0.0
 40
1.25
  0
CIRCLE
  8
0
 62
0
 10
150.0
 20
2.43561063193e-23
 30
0.0
 40
10.0
  0
CIRCLE
  8
0
 62
0
 10
160.253048327
 20
-10.2530483272
 30
0.0
 40
1.25
  0
ENDBLK
  0
ENDSEC
  0
SECTION
  2
ENTITIES
  0
INSERT
  2
CHAMFER
  8
0
 62
0
 10
0.0
 20
0.0
 30
0.0
  0
ENDSEC
  0
EOF
