  0
SECTION
  2
HEADER
  9
$ACADVER
  1
AC1009
  9
$INSBASE
 10
0.0
 20
0.0
 30
0.0
  9
$EXTMIN
 10
0.0
 20
0.0
 30
0.0
  9
$EXTMAX
 10
0.0
 20
0.0
 30
0.0
  0
ENDSEC
  0
SECTION
  2
TABLES
  0
TABLE
  2
VPORT
 70
0
  0
ENDTAB
  0
TABLE
  2
LTYPE
 70
1
  0
LTYPE
  2
CONTINUOUS
 70
0
  3
Solid line
 72
65
 73
0
 40
0.0
  0
ENDTAB
  0
TABLE
  2
LAYER
 70
1
  0
LAYER
  2
0
 70
64
 62
7
  6
continuous
  0
ENDTAB
  0
TABLE
  2
STYLE
 70
1
  0
STYLE
  2
STANDARD
 70
0
 40
0
 41
1.0
 50
0.0
 71
0
 42
1
 3
ARIAL.TTF
 4

  0
ENDTAB
  0
TABLE
  2
VIEW
 70
0
  0
ENDTAB
  0
ENDSEC
  0
SECTION
  2
BLOCKS
  0
BLOCK
  8
0
  2
LINEARPATTERN
 70
0
 10
0.0
 20
0.0
 30
0.0
  3
LINEARPATTERN
  0
LINE
  8
0
 62
0
 10
20.5
 20
-25.5
 30
0.0
 11
-15.5
 21
-25.5
 31
0.0
  0
LINE
  8
0
 62
0
 10
20.5
 20
-25.5
 30
0.0
 11
20.5
 21
-12.0
 31
0.0
  0
LINE
  8
0
 62
0
 10
-15.5
 20
-25.5
 30
0.0
 11
-15.5
 21
25.5
 31
0.0
  0
LINE
  8
0
 62
0
 10
20.5
 20
-12.0
 30
0.0
 11
510.5
 21
-12.0
 31
0.0
  0
LINE
  8
0
 62
0
 10
-15.5
 20
25.5
 30
0.0
 11
20.5
 21
25.5
 31
0.0
  0
LINE
  8
0
 62
0
 10
510.5
 20
-12.0
 30
0.0
 11
510.5
 21
-25.5
 31
0.0
  0
LINE
  8
0
 62
0
 10
20.5
 20
25.5
 30
0.0
 11
20.5
 21
12.0
 31
0.0
  0
LINE
  8
0
 62
0
 10
546.5
 20
-25.5
 30
0.0
 11
510.5
 21
-25.5
 31
0.0
  0
LINE
  8
0
 62
0
 10
20.5
 20
12.0
 30
0.0
 11
510.5
 21
12.0
 31
0.0
  0
LINE
  8
0
 62
0
 10
546.5
 20
25.5
 30
0.0
 11
546.5
 21
-25.5
 31
0.0
  0
LINE
  8
0
 62
0
 10
510.5
 20
25.5
 30
0.0
 11
510.5
 21
12.0
 31
0.0
  0
LINE
  8
0
 62
0
 10
510.5
 20
25.5
 30
0.0
 11
546.5
 21
25.5
 31
0.0
  0
CIRCLE
  8
0
 62
0
 10
541.0
 20
-7.5
 30
0.0
 40
1.6
  0
CIRCLE
  8
0
 62
0
 10
541.0
 20
-20.0
 30
0.0
 40
1.25
  0
CIRCLE
  8
0
 62
0
 10
521.0
 20
-20.0
 30
0.0
 40
1.25
  0
CIRCLE
  8
0
 62
0
 10
521.0
 20
-7.5
 30
0.0
 40
1.6
  0
CIRCLE
  8
0
 62
0
 10
-10.0
 20
-20.0
 30
0.0
 40
1.25
  0
CIRCLE
  8
0
 62
0
 10
-10.0
 20
-7.5
 30
0.0
 40
1.6
  0
CIRCLE
  8
0
 62
0
 10
10.0
 20
-7.5
 30
0.0
 40
1.6
  0
CIRCLE
  8
0
 62
0
 10
10.0
 20
-20.0
 30
0.0
 40
1.25
  0
CIRCLE
  8
0
 62
0
 10
541.0
 20
7.5
 30
0.0
 40
1.6
  0
CIRCLE
  8
0
 62
0
 10
521.0
 20
7.5
 30
0.0
 40
1.6
  0
CIRCLE
  8
0
 62
0
 10
526.0
 20
0.0
 30
0.0
 40
1.25
  0
CIRCLE
  8
0
 62
0
 10
475.5
 20
0.0
 30
0.0
 40
1.25
  0
CIRCLE
  8
0
 62
0
 10
500.5
 20
0.0
 30
0.0
 40
1.25
  0
CIRCLE
  8
0
 62
0
 10
375.5
 20
0.0
 30
0.0
 40
1.25
  0
CIRCLE
  8
0
 62
0
 10
400.5
 20
0.0
 30
0.0
 40
1.25
  0
CIRCLE
  8
0
 62
0
 10
450.5
 20
0.0
 30
0.0
 40
1.25
  0
CIRCLE
  8
0
 62
0
 10
425.5
 20
0.0
 30
0.0
 40
1.25
  0
CIRCLE
  8
0
 62
0
 10
325.5
 20
0.0
 30
0.0
 40
1.25
  0
CIRCLE
  8
0
 62
0
 10
350.5
 20
0.0
 30
0.0
 40
1.25
  0
CIRCLE
  8
0
 62
0
 10
75.5
 20
0.0
 30
0.0
 40
1.25
  0
CIRCLE
  8
0
 62
0
 10
100.5
 20
0.0
 30
0.0
 40
1.25
  0
CIRCLE
  8
0
 62
0
 10
125.5
 20
0.0
 30
0.0
 40
1.25
  0
CIRCLE
  8
0
 62
0
 10
150.5
 20
0.0
 30
0.0
 40
1.25
  0
CIRCLE
  8
0
 62
0
 10
225.5
 20
0.0
 30
0.0
 40
1.25
  0
CIRCLE
  8
0
 62
0
 10
200.5
 20
0.0
 30
0.0
 40
1.25
  0
CIRCLE
  8
0
 62
0
 10
175.5
 20
0.0
 30
0.0
 40
1.25
  0
CIRCLE
  8
0
 62
0
 10
275.5
 20
0.0
 30
0.0
 40
1.25
  0
CIRCLE
  8
0
 62
0
 10
250.5
 20
0.0
 30
0.0
 40
1.25
  0
CIRCLE
  8
0
 62
0
 10
300.5
 20
0.0
 30
0.0
 40
1.25
  0
CIRCLE
  8
0
 62
0
 10
-10.0
 20
7.5
 30
0.0
 40
1.6
  0
CIRCLE
  8
0
 62
0
 10
10.0
 20
7.5
 30
0.0
 40
1.6
  0
CIRCLE
  8
0
 62
0
 10
5.0
 20
0.0
 30
0.0
 40
1.25
  0
CIRCLE
  8
0
 62
0
 10
50.5
 20
0.0
 30
0.0
 40
1.25
  0
CIRCLE
  8
0
 62
0
 10
25.5
 20
0.0
 30
0.0
 40
1.25
  0
CIRCLE
  8
0
 62
0
 10
541.0
 20
20.0
 30
0.0
 40
1.25
  0
CIRCLE
  8
0
 62
0
 10
521.0
 20
20.0
 30
0.0
 40
1.25
  0
CIRCLE
  8
0
 62
0
 10
10.0
 20
20.0
 30
0.0
 40
1.25
  0
CIRCLE
  8
0
 62
0
 10
-10.0
 20
20.0
 30
0.0
 40
1.25
  0
ENDBLK
  0
ENDSEC
  0
SECTION
  2
ENTITIES
  0
INSERT
  2
LINEARPATTERN
  8
0
 62
0
 10
0.0
 20
0.0
 30
0.0
  0
ENDSEC
  0
EOF
